<svg width="40" height="40" viewBox="0 0 40 40" fill="none" xmlns="http://www.w3.org/2000/svg">
<rect width="40" height="40" rx="8" fill="#A9EBE7"/>
<path d="M24.6002 28.4502C24.6002 25.2001 27.2 22.6002 30.45 22.6002C31.1651 22.6002 31.8153 22.7304 32.4002 22.9253V8.29992C32.4002 7.58488 31.8153 7 31.1003 7H10.2999C9.58487 7 9 7.58491 9 8.29992V29.1005C9 29.8156 9.5849 30.4004 10.2999 30.4004H24.9252C24.7302 29.816 24.6005 29.1658 24.6005 28.4507L24.6002 28.4502ZM17.4498 12.8497H26.5497C26.9397 12.8497 27.1999 13.1095 27.1999 13.4999C27.1999 13.8899 26.9401 14.1501 26.5497 14.1501L17.4498 14.1497C17.0599 14.1497 16.7996 13.8899 16.7996 13.4995C16.7996 13.1095 17.0599 12.8497 17.4498 12.8497V12.8497ZM17.4498 18.0495H29.15C29.54 18.0495 29.8002 18.3093 29.8002 18.6997C29.8002 19.0897 29.5404 19.3499 29.15 19.3499H17.4498C17.0599 19.3499 16.7996 19.0901 16.7996 18.6997C16.7996 18.3098 17.0599 18.0495 17.4498 18.0495ZM12.8998 25.2C12.1848 25.2 11.5999 24.6151 11.5999 23.9C11.5999 23.185 12.1848 22.6001 12.8998 22.6001C13.6149 22.6001 14.1997 23.185 14.1997 23.9C14.1997 24.6151 13.6148 25.2 12.8998 25.2ZM12.8998 19.9997C12.1848 19.9997 11.5999 19.4148 11.5999 18.6998C11.5999 17.9848 12.1848 17.3999 12.8998 17.3999C13.6149 17.3999 14.1997 17.9848 14.1997 18.6998C14.1997 19.4148 13.6148 19.9997 12.8998 19.9997ZM12.8998 14.7994C12.1848 14.7994 11.5999 14.2145 11.5999 13.4995C11.5999 12.7845 12.1848 12.1996 12.8998 12.1996C13.6149 12.1996 14.1997 12.7845 14.1997 13.4995C14.1997 14.2146 13.6148 14.7994 12.8998 14.7994ZM23.9499 24.5497H17.4498C17.0599 24.5497 16.7996 24.2899 16.7996 23.8995C16.7996 23.5096 17.0594 23.2493 17.4498 23.2493H23.9499C24.3399 23.2493 24.6001 23.5091 24.6001 23.8995C24.6001 24.2899 24.3399 24.5497 23.9499 24.5497ZM30.45 23.9C27.915 23.9 25.9001 25.9149 25.9001 28.45C25.9001 30.9851 27.915 33 30.45 33C32.9851 33 35 30.9851 35 28.45C35 25.9149 32.9851 23.9 30.45 23.9ZM33.0499 29.1002H31.0997V31.0504C31.0997 31.4404 30.8399 31.7006 30.4495 31.7006C30.0596 31.7006 29.7993 31.4408 29.7993 31.0504V29.1002H27.8492C27.4592 29.1002 27.199 28.8404 27.199 28.45C27.199 28.0601 27.4588 27.7998 27.8492 27.7998H29.7993V25.8497C29.7993 25.4597 30.0591 25.1995 30.4495 25.1995C30.8394 25.1995 31.0997 25.4593 31.0997 25.8497V27.7998H33.0499C33.4398 27.7998 33.7 28.0596 33.7 28.45C33.7 28.84 33.4402 29.1002 33.0499 29.1002Z" fill="#1782B3"/>
</svg>
