<svg width="40" height="40" viewBox="0 0 40 40" fill="none" xmlns="http://www.w3.org/2000/svg">
<g clip-path="url(#clip0_235_6626)">
<path d="M32 0H8C3.58172 0 0 3.58172 0 8V32C0 36.4183 3.58172 40 8 40H32C36.4183 40 40 36.4183 40 32V8C40 3.58172 36.4183 0 32 0Z" fill="#9BD8A1"/>
<path d="M12.0366 18.5975V15H32.1828V18.5975H12.0366Z" stroke="#0D7323" stroke-width="1.43901" stroke-linejoin="round"/>
<path d="M12.0366 12.5975V9H32.1828V12.5975H12.0366Z" stroke="#0D7323" stroke-width="1.43901" stroke-linejoin="round"/>
<path d="M12.0366 24.5975V21H32.1828V24.5975H12.0366Z" stroke="#0D7323" stroke-width="1.43901" stroke-linejoin="round"/>
<circle cx="8.43901" cy="10.439" r="1.43901" fill="#0D7323"/>
<circle cx="8.43901" cy="16.439" r="1.43901" fill="#0D7323"/>
<circle cx="8.43901" cy="22.439" r="1.43901" fill="#0D7323"/>
<path d="M12.0366 30.5975V27H32.1828V30.5975H12.0366Z" stroke="#0D7323" stroke-width="1.43901" stroke-linejoin="round"/>
<circle cx="8.43901" cy="28.439" r="1.43901" fill="#0D7323"/>
<path d="M35.5714 23H25.9286C24.8635 23 24 23.8635 24 24.9286V34.5714C24 35.6365 24.8635 36.5 25.9286 36.5H35.5714C36.6365 36.5 37.5 35.6365 37.5 34.5714V24.9286C37.5 23.8635 36.6365 23 35.5714 23Z" fill="#9CD8A1"/>
<path d="M32.3909 29.3728H31.0501L31.3865 27.3545H32.3909C32.5111 27.3545 32.6221 27.2904 32.6822 27.1863C32.7423 27.0822 32.7423 26.954 32.6822 26.8499C32.6221 26.7459 32.5111 26.6817 32.3909 26.6817H31.4985L31.7135 25.3917V25.3918C31.7332 25.2732 31.6882 25.1531 31.5954 25.0767C31.5027 25.0003 31.3762 24.9792 31.2637 25.0214C31.1511 25.0635 31.0695 25.1625 31.0498 25.2811L30.8167 26.6817H28.4713L28.6862 25.3918C28.706 25.2732 28.661 25.1531 28.5682 25.0767C28.4754 25.0003 28.3489 24.9793 28.2364 25.0214C28.1238 25.0636 28.0423 25.1626 28.0225 25.2811L27.7895 26.6818H26.3364C26.2162 26.6818 26.1051 26.7459 26.0451 26.85C25.985 26.954 25.985 27.0823 26.0451 27.1863C26.1051 27.2904 26.2162 27.3545 26.3364 27.3545H27.6771L27.3408 29.3728H26.3364C26.2162 29.3728 26.1051 29.4369 26.0451 29.541C25.985 29.6451 25.985 29.7733 26.0451 29.8774C26.1051 29.9814 26.2162 30.0456 26.3364 30.0456H27.2287L27.0138 31.3355C26.994 31.4541 27.039 31.5742 27.1318 31.6506C27.2246 31.727 27.3511 31.7481 27.4636 31.7059C27.5762 31.6638 27.6577 31.5648 27.6775 31.4462L27.9105 30.0455H30.2557L30.0407 31.3356V31.3355C30.021 31.4541 30.066 31.5742 30.1588 31.6506C30.2515 31.727 30.378 31.748 30.4906 31.7059C30.6031 31.6637 30.6847 31.5647 30.7044 31.4462L30.9378 30.0455H32.3909C32.5111 30.0455 32.6221 29.9814 32.6822 29.8773C32.7423 29.7733 32.7423 29.645 32.6822 29.541C32.6221 29.4369 32.5111 29.3728 32.3909 29.3728H32.3909ZM28.0228 29.3728L28.3592 27.3545H30.7046L30.3682 29.3728H28.0228Z" fill="#0D7323"/>
<path d="M32.3909 29.3728H31.0501L31.3865 27.3545H32.3909C32.5111 27.3545 32.6221 27.2904 32.6822 27.1863C32.7423 27.0822 32.7423 26.954 32.6822 26.8499C32.6221 26.7459 32.5111 26.6817 32.3909 26.6817H31.4985L31.7135 25.3917V25.3918C31.7332 25.2732 31.6882 25.1531 31.5954 25.0767C31.5027 25.0003 31.3762 24.9792 31.2637 25.0214C31.1511 25.0635 31.0695 25.1625 31.0498 25.2811L30.8167 26.6817H28.4713L28.6862 25.3918C28.706 25.2732 28.661 25.1531 28.5682 25.0767C28.4754 25.0003 28.3489 24.9793 28.2364 25.0214C28.1238 25.0636 28.0423 25.1626 28.0225 25.2811L27.7895 26.6818H26.3364C26.2162 26.6818 26.1051 26.7459 26.0451 26.85C25.985 26.954 25.985 27.0823 26.0451 27.1863C26.1051 27.2904 26.2162 27.3545 26.3364 27.3545H27.6771L27.3408 29.3728H26.3364C26.2162 29.3728 26.1051 29.4369 26.0451 29.541C25.985 29.6451 25.985 29.7733 26.0451 29.8774C26.1051 29.9814 26.2162 30.0456 26.3364 30.0456H27.2287L27.0138 31.3355C26.994 31.4541 27.039 31.5742 27.1318 31.6506C27.2246 31.727 27.3511 31.7481 27.4636 31.7059C27.5762 31.6638 27.6577 31.5648 27.6775 31.4462L27.9105 30.0455H30.2557L30.0407 31.3356V31.3355C30.021 31.4541 30.066 31.5742 30.1588 31.6506C30.2515 31.727 30.378 31.748 30.4906 31.7059C30.6031 31.6637 30.6847 31.5647 30.7044 31.4462L30.9378 30.0455H32.3909C32.5111 30.0455 32.6221 29.9814 32.6822 29.8773C32.7423 29.7733 32.7423 29.645 32.6822 29.541C32.6221 29.4369 32.5111 29.3728 32.3909 29.3728H32.3909ZM28.0228 29.3728L28.3592 27.3545H30.7046L30.3682 29.3728H28.0228Z" stroke="#0D7323"/>
</g>
<defs>
<clipPath id="clip0_235_6626">
<rect width="40" height="40" fill="white"/>
</clipPath>
</defs>
</svg>
