<svg width="40" height="40" viewBox="0 0 40 40" fill="none" xmlns="http://www.w3.org/2000/svg">
<rect width="40" height="40" rx="8" fill="#A9EBE7"/>
<path d="M13 7C9.69175 7 7 9.6915 7 13C7 16.3084 9.6915 19 12.9995 19C16.3079 19 19 16.3085 19 13C18.9998 9.69139 16.3083 7 13 7V7ZM13 17.769C10.3702 17.769 8.23111 15.6296 8.23111 12.9997C8.23111 10.3699 10.3704 8.23085 13 8.23085C15.6298 8.23085 17.7693 10.3701 17.7693 12.9997C17.7691 15.6296 15.6296 17.769 13 17.769V17.769Z" fill="#1782B3"/>
<path d="M26.9986 18.9999C28.602 18.9999 30.1089 18.3758 31.242 17.2426C32.3756 16.1093 33 14.6025 33 12.9998C33 11.3973 32.3753 9.89077 31.2422 8.75713C30.1089 7.62405 28.6014 7 26.9987 7C25.396 7 23.8885 7.62451 22.7549 8.75734C20.415 11.0967 20.415 14.9034 22.7549 17.2427C23.8887 18.3759 25.3958 19 26.9987 19L26.9986 18.9999ZM22.3304 13.9687L27.9701 8.32983C28.3108 8.39986 28.6413 8.5074 28.9564 8.64925L22.6489 14.9552C22.5062 14.6365 22.4001 14.3055 22.3308 13.9684L22.3304 13.9687ZM30.0295 9.31713C30.148 9.4147 30.2622 9.51785 30.3719 9.62778C30.4815 9.73731 30.5851 9.85184 30.6823 9.96995L23.9671 16.6829C23.8492 16.5854 23.7344 16.4818 23.6253 16.3723C23.5149 16.2622 23.4119 16.1474 23.315 16.0299L30.0295 9.31713ZM31.6697 12.0286L26.0264 17.67C25.6858 17.5999 25.3555 17.492 25.0401 17.3505L31.3496 11.0426C31.4913 11.3576 31.5989 11.6879 31.6693 12.0284L31.6697 12.0286ZM30.3715 16.3723C29.6437 17.0999 28.7219 17.5634 27.7231 17.7142L31.7138 13.7245C31.5627 14.7233 31.0995 15.6448 30.3715 16.3723ZM23.6252 9.62763C24.3528 8.89999 25.2746 8.43652 26.2733 8.2857L22.2864 12.2714C22.435 11.3034 22.8807 10.372 23.6252 9.62763Z" fill="#1782B3"/>
<path d="M13 21C9.69175 21 7 23.6917 7 27C7 30.3084 9.6915 33 12.9995 33C16.3079 33 19 30.3085 19 27C19.0002 23.6916 16.3083 21 13 21ZM13 31.769C10.3702 31.769 8.23111 29.6296 8.23111 26.9997C8.23111 24.3699 10.3704 22.2304 13 22.2304C15.6298 22.2304 17.7693 24.3699 17.7693 26.9997C17.7691 29.6296 15.6296 31.769 13 31.769V31.769Z" fill="#1782B3"/>
<path d="M27 21C23.6916 21 21 23.6915 21 27C21 30.3084 23.6913 33 27 33C30.308 33 33 30.3085 33 27C33 23.6916 30.3079 21 27 21ZM27 31.769C24.3702 31.769 22.2307 29.6296 22.2307 26.9997C22.2307 24.3699 24.3699 22.2304 27 22.2304C29.6294 22.2304 31.7693 24.3699 31.7693 26.9997C31.7693 29.6296 29.6294 31.769 27 31.769Z" fill="#1782B3"/>
</svg>
