<svg width="40" height="40" viewBox="0 0 40 40" fill="none" xmlns="http://www.w3.org/2000/svg">
<rect width="40" height="40" rx="8" fill="#FFDF8E"/>
<path d="M18.0638 22.6208L15.2354 19.7925H7V32.2947H32.7714V22.7646H18.3999C18.2753 22.7646 18.1506 22.7073 18.0643 22.6208H18.0638Z" fill="#FF8717"/>
<path d="M15.7726 18.9682L18.6009 21.7966H29.7992V9.63953L28.1597 8H9.97235V18.8241H15.4276C15.5618 18.8337 15.6769 18.8817 15.7728 18.9681L15.7726 18.9682ZM17.8915 12.4196C17.6998 12.2279 17.6998 11.9306 17.8915 11.7389C18.0833 11.5471 18.3805 11.5471 18.5723 11.7389L19.8857 13.0525L21.1993 11.7389C21.391 11.5471 21.6883 11.5471 21.8801 11.7389C22.0718 11.9306 22.0718 12.2279 21.8801 12.4196L20.5664 13.7333L21.8801 15.0469C22.0718 15.2386 22.0718 15.5359 21.8801 15.7276C21.7842 15.8235 21.6596 15.8714 21.5445 15.8714C21.4294 15.8714 21.2952 15.8235 21.2089 15.7276L19.8857 14.4044L18.5721 15.718C18.4762 15.8139 18.3517 15.8619 18.2366 15.8619C18.1214 15.8619 17.9872 15.8139 17.901 15.718C17.7092 15.5263 17.7092 15.229 17.901 15.0373L19.2146 13.7237L17.8915 12.4196Z" fill="#FF8717"/>
</svg>
