<svg width="40" height="40" viewBox="0 0 40 40" fill="none" xmlns="http://www.w3.org/2000/svg">
<rect width="40" height="40" rx="8" fill="#A9EBE7"/>
<path d="M28.1056 26.9997H16.5672C15.5575 26.9997 14.6058 26.6165 13.8846 25.9094L8.46158 20.6344C8.17304 20.3396 8 19.9271 8 19.4851C8 19.0431 8.17304 18.6306 8.49036 18.3358L13.8845 13.0903C14.6057 12.383 15.5576 12 16.5671 12H28.1055C30.2401 12 31.9998 13.7976 31.9998 15.9784L32 23.0216C32 25.2023 30.2404 27 28.1057 27L28.1056 26.9997ZM24.7306 15.9193L22.5959 18.0117L20.5478 15.8309L19.1055 17.275L21.1536 19.4557L19.019 21.5482L20.4325 23.0216L22.5671 20.9292L24.6153 23.11L26.0576 21.6659L24.0094 19.4852L26.1441 17.3927L24.7306 15.9193Z" fill="#1782B3"/>
</svg>
