<svg width="40" height="40" viewBox="0 0 40 40" fill="none" xmlns="http://www.w3.org/2000/svg">
<rect width="40" height="40" rx="8" fill="#A9EBE7"/>
<path d="M18.9045 32.9693C19.007 33.0721 19.1423 33.1247 19.2784 33.1248L19.5313 32.9107C19.8046 32.6909 26.2461 27.461 28.1658 21.7219L28.2843 21.7616C28.2843 21.7616 28.2843 21.7615 28.2843 21.7615C28.3477 21.5721 28.2989 21.3632 28.1579 21.2215L28.1579 21.2215L19.0354 12.0566L19.0354 12.0566C18.9351 11.9558 18.7942 11.8958 18.6492 11.9012C18.5054 11.9046 18.3695 11.9663 18.2722 12.0718L18.2721 12.0719C12.8405 17.9778 7.25993 20.1554 7.21451 20.1728L7.2145 20.1728C7.04754 20.2367 6.92424 20.3808 6.88675 20.5555L6.88674 20.5555C6.84928 20.7303 6.9027 20.9124 7.02892 21.0389C7.02896 21.039 7.029 21.039 7.02904 21.039L18.9043 32.9692L18.9045 32.9693ZM23.0437 28.1841C21.4863 29.9548 19.9817 31.3034 19.311 31.8797L8.32581 20.8444C10.0078 20.0704 14.3059 17.8053 18.6734 13.1903L27.1756 21.7319C26.3206 24.0691 24.6576 26.349 23.0437 28.1841Z" fill="#1782B3" stroke="#1782B3" stroke-width="0.25"/>
<path d="M15.8037 15.2616L15.8036 15.2616C15.598 15.0548 15.5987 14.7205 15.8053 14.5146L15.8054 14.5145L15.8054 14.5145C16.0123 14.3091 16.3466 14.3093 16.5524 14.5163M15.8037 15.2616L25.793 25.2965C25.8641 25.3681 25.9508 25.415 26.0422 25.4372V25.4524H26.1672C26.3017 25.4524 26.4367 25.4012 26.5399 25.2987L26.5401 25.2986C26.7466 25.0927 26.7473 24.7584 26.5417 24.5516L26.5417 24.5516L16.5524 14.5163M15.8037 15.2616L25.7929 25.2964L15.8037 15.2616ZM16.5524 14.5163L16.4638 14.6044M16.5524 14.5163L16.5524 14.5162L16.4638 14.6044M16.4638 14.6044C16.3068 14.4465 16.0516 14.4462 15.8935 14.6032L16.4638 14.6044Z" fill="#1782B3" stroke="#1782B3" stroke-width="0.25"/>
<path d="M15.7093 29.3451H15.5843C15.45 29.3451 15.3147 29.294 15.2117 29.1911C15.0048 28.9853 15.0043 28.651 15.21 28.4441L15.2101 28.4441L17.8031 25.839C18.0088 25.6321 18.3432 25.6316 18.5501 25.8373M15.7093 29.3451L15.4593 29.2003C15.401 29.1814 15.3462 29.1488 15.2999 29.1025C15.142 28.9456 15.1415 28.6903 15.2987 28.5323L17.8917 25.9272C18.0487 25.7693 18.3039 25.7688 18.462 25.9259C18.6198 26.0829 18.6204 26.3381 18.4632 26.4962L15.8702 29.1013C15.7912 29.1807 15.6878 29.2201 15.5843 29.2201H15.7093V29.2201V29.3301M15.7093 29.3451V29.3301M15.7093 29.3451V29.3301M18.5501 25.8373L18.4621 25.9258L18.5501 25.8373C18.5501 25.8373 18.5501 25.8373 18.5501 25.8373ZM18.5501 25.8373C18.7571 26.043 18.7576 26.3774 18.5519 26.5843L18.5518 26.5844L15.9588 29.1894L15.9588 29.1895C15.8874 29.2612 15.8007 29.308 15.7093 29.3301" fill="#1782B3" stroke="#1782B3" stroke-width="0.25"/>
<path d="M11.2429 25.0524V25.0521C11.1086 25.0521 10.9732 25.001 10.8702 24.8981C10.6634 24.6923 10.6629 24.358 10.8686 24.1512L10.8686 24.1511L13.4616 21.5461C13.6674 21.3391 14.0018 21.3386 14.2087 21.5443M11.2429 25.0524V24.9271C11.1401 24.9271 11.037 24.888 10.9585 24.8096C10.8006 24.6526 10.8001 24.3973 10.9572 24.2393L13.5503 21.6342C13.7072 21.4763 13.9625 21.4758 14.1205 21.6329C14.2784 21.7899 14.279 22.0452 14.1218 22.2032L11.5286 24.8083M11.2429 25.0524L11.2475 25.0521M11.2429 25.0524L11.6173 24.8964M14.2087 21.5443L14.1207 21.6328L14.2087 21.5443C14.2087 21.5443 14.2087 21.5443 14.2087 21.5443ZM14.2087 21.5443C14.4156 21.7501 14.4162 22.0845 14.2104 22.2913L14.2104 22.2914L11.6174 24.8963L11.5286 24.8083M11.5286 24.8083L11.6172 24.8965L11.6173 24.8964M11.5286 24.8083C11.4501 24.8875 11.3464 24.9271 11.2429 24.9271L11.2515 25.0518L11.2515 25.0518L11.2475 25.0521M11.6173 24.8964C11.5154 24.9991 11.3812 25.0509 11.2475 25.0521M11.6173 24.8964L11.2475 25.0521" fill="#1782B3" stroke="#1782B3" stroke-width="0.25"/>
<path d="M23.974 17.7705L23.974 17.7706C23.7683 17.9775 23.7688 18.3119 23.9758 18.5176L24.0639 18.429L23.9755 18.5174C24.0464 18.5883 24.1326 18.6346 24.2233 18.6566V18.6718H24.3483C24.4838 18.6718 24.6194 18.6202 24.7228 18.5164L31.9711 11.2345L31.9711 11.2344C32.1768 11.0275 32.1763 10.6931 31.9693 10.4874C31.7625 10.2817 31.4281 10.2822 31.2223 10.4891C31.2223 10.4891 31.2223 10.4891 31.2223 10.4891L23.974 17.7705Z" fill="#1782B3" stroke="#1782B3" stroke-width="0.25"/>
<path d="M21.6169 15.9705L21.5285 16.0589C21.6316 16.1619 21.767 16.2131 21.9013 16.2131L21.9015 16.2131L29.5224 8.02886C29.3155 7.82317 28.9811 7.82369 28.7754 8.03058C28.7754 8.03059 28.7753 8.03061 28.7753 8.03063L21.5271 15.3121L21.527 15.3121C21.3213 15.519 21.3219 15.8534 21.5288 16.0591L21.6169 15.9705ZM21.6169 15.9705C21.6954 16.049 21.7986 16.0881 21.9013 16.0881L21.6157 15.4002C21.4585 15.5583 21.4591 15.8135 21.6169 15.9705Z" fill="#1782B3" stroke="#1782B3" stroke-width="0.25"/>
</svg>
