<svg width="40" height="40" viewBox="0 0 40 40" fill="none" xmlns="http://www.w3.org/2000/svg">
<rect width="40" height="40" rx="8" fill="#A9EBE7"/>
<path d="M32.9937 12.6205C33.0248 12.3343 32.9398 12.0475 32.7572 11.8226C32.5747 11.5979 32.3093 11.4533 32.019 11.4205L28.0533 10.984C25.856 9.08326 23.0379 8.02416 20.1135 8.00041C17.189 7.97647 14.3535 8.98919 12.1246 10.8538C9.89549 12.7181 8.42168 15.3103 7.97224 18.1562C7.52279 21.0023 8.12761 23.9126 9.67621 26.3561L8.23621 26.2034C7.84047 26.1605 7.45155 26.3288 7.21595 26.6449C6.98051 26.961 6.93393 27.3768 7.09423 27.7358C7.25436 28.0947 7.5969 28.3423 7.99265 28.3852L11.759 28.7997C13.9448 30.7957 16.7977 31.9333 19.7777 31.9972C22.7578 32.0611 25.6583 31.0469 27.9303 29.1465C30.2022 27.2462 31.6882 24.5914 32.1068 21.685C32.5255 18.7783 31.8477 15.8214 30.202 13.3737L31.7639 13.5483C32.0512 13.5826 32.3407 13.5046 32.5705 13.3313C32.8003 13.1581 32.9524 12.9026 32.9937 12.6205ZM29.87 21.0099C29.6106 23.3643 28.496 25.547 26.7315 27.1555C24.967 28.7644 22.6714 29.6909 20.2682 29.7644C17.8651 29.8379 15.5157 29.0534 13.6532 27.5557L14.1074 23.5736C14.1509 23.1838 13.9801 22.8008 13.6591 22.5687C13.338 22.3367 12.9158 22.291 12.5513 22.4487C12.1868 22.6066 11.9354 22.9438 11.8919 23.3335L11.6704 25.3737C10.3452 23.412 9.78029 21.0466 10.079 18.7086C10.3777 16.3709 11.5198 14.2169 13.2972 12.6397C15.0745 11.0626 17.3685 10.1674 19.7604 10.1179C22.1522 10.0681 24.4825 10.8672 26.3255 12.3691L25.8935 16.2421C25.8624 16.5284 25.9474 16.815 26.13 17.0398C26.3126 17.2647 26.5779 17.4091 26.8683 17.4421H26.946C27.2198 17.4438 27.4845 17.3454 27.689 17.166C27.8936 16.9867 28.0235 16.7391 28.0536 16.4711L28.2751 14.5509C29.5592 16.4532 30.1234 18.7396 29.87 21.0099Z" fill="#1782B3"/>
</svg>
