<svg width="40" height="40" viewBox="0 0 40 40" fill="none" xmlns="http://www.w3.org/2000/svg">
<rect width="40" height="40" rx="8" fill="#A9EBE7"/>
<path d="M14.7862 12.8829C15.044 12.8829 15.2547 12.6719 15.2547 12.4143V8.46856C15.2547 8.21075 15.0437 8 14.7862 8H12.2604C11.9981 8 11.7919 8.21075 11.7919 8.46856V12.4143C11.7919 12.6721 11.9981 12.8829 12.2604 12.8829H14.7862Z" fill="#1782B3"/>
<path d="M27.1713 12.8829C27.4291 12.8829 27.6399 12.6719 27.6399 12.4143V8.46856C27.6399 8.21075 27.4288 8 27.1713 8H24.6407C24.3829 8 24.1722 8.21075 24.1722 8.46856V12.4143C24.1722 12.6721 24.3832 12.8829 24.6407 12.8829H27.1713Z" fill="#1782B3"/>
<path d="M29.7768 10.4412H28.5771V12.4141C28.5771 13.1873 27.9443 13.82 27.1711 13.82H24.6405C23.8674 13.82 23.2346 13.1873 23.2346 12.4141V10.4412H16.1918V12.4141C16.1918 13.1873 15.559 13.82 14.7858 13.82H12.2601C11.4869 13.82 10.8541 13.1873 10.8541 12.4141V10.4412H9.6592C8.74088 10.4412 8.00018 11.1863 8.00018 12.0954V15.3429H31.4307V12.0954C31.4309 11.1863 30.6858 10.4412 29.7767 10.4412H29.7768Z" fill="#1782B3"/>
<path d="M26.7204 25.2463C26.1413 25.2463 25.67 25.7175 25.67 26.2967V30.7247L31.1529 25.2463H26.7204Z" fill="#1782B3"/>
<path d="M8 29.3458C8 30.2596 8.74042 31 9.65901 31H24.7342V26.2951C24.7342 25.2033 25.6245 24.3082 26.7211 24.3082H31.4308L31.4305 16.2805H8.00001L8 29.3458ZM26.6554 17.7337H28.9422C29.2 17.7337 29.4107 17.9445 29.4107 18.2023C29.4107 18.4646 29.1997 18.6709 28.9422 18.6709H26.6554C26.3976 18.6709 26.1869 18.4646 26.1869 18.2023C26.1869 17.9445 26.3979 17.7337 26.6554 17.7337V17.7337ZM26.6554 21.0467H28.9422C29.2 21.0467 29.4107 21.2577 29.4107 21.5153C29.4107 21.7731 29.1997 21.9838 28.9422 21.9838H26.6554C26.3976 21.9838 26.1869 21.7728 26.1869 21.5153C26.1869 21.2577 26.3979 21.0467 26.6554 21.0467ZM21.2665 17.7337H23.5532C23.811 17.7337 24.0218 17.9445 24.0218 18.2023C24.0218 18.4646 23.811 18.6709 23.5532 18.6709H21.2665C21.0087 18.6709 20.7979 18.4646 20.7979 18.2023C20.7979 17.9445 21.0087 17.7337 21.2665 17.7337V17.7337ZM21.2665 21.0467H23.5532C23.811 21.0467 24.0218 21.2577 24.0218 21.5153C24.0218 21.7731 23.811 21.9838 23.5532 21.9838H21.2665C21.0087 21.9838 20.7979 21.7728 20.7979 21.5153C20.7979 21.2577 21.0087 21.0467 21.2665 21.0467ZM15.8775 17.7337H18.1598C18.4224 17.7337 18.6284 17.9445 18.6284 18.2023C18.6284 18.4646 18.4221 18.6709 18.1598 18.6709H15.8775C15.6197 18.6709 15.409 18.4646 15.409 18.2023C15.4087 17.9445 15.6197 17.7337 15.8775 17.7337V17.7337ZM15.8775 21.0467H18.1598C18.4224 21.0467 18.6284 21.2577 18.6284 21.5153C18.6284 21.7731 18.4221 21.9838 18.1598 21.9838L15.8775 21.9841C15.6197 21.9841 15.409 21.7731 15.409 21.5155C15.4087 21.2577 15.6197 21.0467 15.8775 21.0467V21.0467ZM15.8775 24.3599H18.1598C18.4224 24.3599 18.6284 24.5709 18.6284 24.8285C18.6284 25.0863 18.4221 25.297 18.1598 25.297H15.8775C15.6197 25.297 15.409 25.086 15.409 24.8285C15.4087 24.5707 15.6197 24.3599 15.8775 24.3599ZM15.8775 27.6729H18.1598C18.4224 27.6729 18.6284 27.8791 18.6284 28.1414C18.6284 28.3992 18.4221 28.61 18.1598 28.61L15.8775 28.6103C15.6197 28.6103 15.409 28.3995 15.409 28.1417C15.4087 27.8791 15.6197 27.6729 15.8775 27.6729V27.6729ZM10.4883 17.7335H12.7706C13.0329 17.7335 13.2391 17.9443 13.2391 18.2021C13.2391 18.4644 13.0329 18.6707 12.7706 18.6707H10.4883C10.2305 18.6707 10.0198 18.4644 10.0198 18.2021C10.0198 17.9443 10.2308 17.7335 10.4883 17.7335V17.7335ZM10.4883 21.0465H12.7706C13.0329 21.0465 13.2391 21.2575 13.2391 21.5151C13.2391 21.7729 13.0329 21.9836 12.7706 21.9836H10.4883C10.2305 21.9836 10.0198 21.7726 10.0198 21.5151C10.0198 21.2575 10.2308 21.0465 10.4883 21.0465ZM10.4883 24.3597H12.7706C13.0329 24.3597 13.2391 24.5707 13.2391 24.8283C13.2391 25.0861 13.0329 25.2968 12.7706 25.2968H10.4883C10.2305 25.2968 10.0198 25.0858 10.0198 24.8283C10.0198 24.5705 10.2308 24.3597 10.4883 24.3597ZM10.4883 27.6727H12.7706C13.0329 27.6727 13.2391 27.8789 13.2391 28.1412C13.2391 28.399 13.0329 28.6098 12.7706 28.6098H10.4883C10.2305 28.6098 10.0198 28.399 10.0198 28.1412C10.0198 27.8789 10.2308 27.6727 10.4883 27.6727Z" fill="#1782B3"/>
</svg>
