<svg width="40" height="40" viewBox="0 0 40 40" fill="none" xmlns="http://www.w3.org/2000/svg">
<rect width="40" height="40" rx="8" fill="#A9EBE7"/>
<path fill-rule="evenodd" clip-rule="evenodd" d="M23 25.686L21.6657 25.174C21.7207 24.5932 21.7041 24.0152 21.6203 23.4503L22.926 22.8685C22.8028 22.236 22.6088 21.6122 22.34 21.0089C22.0712 20.4056 21.7372 19.8442 21.35 19.329L20.0436 19.9106C19.6798 19.4708 19.2614 19.0717 18.7929 18.724L19.305 17.3899C18.7701 17.03 18.1917 16.7265 17.5748 16.4894C16.9605 16.2537 16.3291 16.0904 15.6874 16L15.1747 17.3355C14.5939 17.2804 14.0153 17.297 13.4509 17.3808L12.8724 16.0819C11.5801 16.336 10.3723 16.8841 9.33588 17.6668L9.91055 18.957C9.46989 19.3207 9.07096 19.7395 8.72314 20.2077L7.39247 19.6976C7.02964 20.2313 6.72472 20.8097 6.48778 21.4262C6.25142 22.0429 6.09018 22.6755 6 23.3136L7.33433 23.8256C7.27929 24.4064 7.2959 24.9844 7.37971 25.5493L6.07395 26.1309C6.19715 26.7636 6.39122 27.3872 6.65999 27.9909C6.92937 28.5946 7.26285 29.1556 7.65041 29.6708L8.95617 29.0894C9.31997 29.5294 9.73841 29.9287 10.2074 30.2762L9.69536 31.6101C10.2302 31.9702 10.8086 32.2739 11.4256 32.5106C12.0398 32.7463 12.6712 32.9095 13.313 33L13.8256 31.6647C14.4065 31.7196 14.985 31.703 15.5495 31.619L16.128 32.9175C17.4202 32.6634 18.6287 32.1154 19.6651 31.3327L19.0898 30.0424C19.5299 29.6787 19.9294 29.2603 20.2772 28.7917L21.6073 29.3022C21.9701 28.7687 22.275 28.1903 22.512 27.574C22.7491 26.9573 22.9098 26.3241 22.9999 25.686L23 25.686ZM18.1186 25.8879C17.3513 27.8866 15.1097 28.8841 13.1109 28.1171C11.114 27.3506 10.1151 25.1097 10.8815 23.1113C11.6487 21.1132 13.8904 20.1157 15.8882 20.8816C17.8868 21.6488 18.8857 23.8899 18.1187 25.8879L18.1186 25.8879Z" fill="#1782B3"/>
<path fill-rule="evenodd" clip-rule="evenodd" d="M28.5041 11.4504L27.4178 12.0013C27.0034 11.6895 26.523 11.4453 25.9982 11.2823V10.1814C25.52 10.0665 25.019 10 24.5 10C23.981 10 23.4806 10.0666 23.0018 10.1814V11.2823C22.4767 11.4451 21.9969 11.6896 21.5822 12.0013L20.4959 11.4504C19.7842 12.07 19.2629 12.8544 19 13.7306L20.0837 14.28C20.0346 14.5139 20.0052 14.754 20.0052 15C20.0052 15.246 20.0344 15.4863 20.0837 15.72L19 16.2694C19.2627 17.1454 19.7842 17.9302 20.4959 18.5496L21.5822 17.9987C21.9973 18.3105 22.477 18.5547 23.0018 18.7177V19.8186C23.4806 19.9335 23.981 20 24.5 20C25.019 20 25.52 19.9334 25.9982 19.8186V18.7177C26.5233 18.5549 27.0036 18.3104 27.4178 17.9987L28.5041 18.5496C29.2164 17.93 29.7377 17.1456 30 16.2694L28.9169 15.72C28.966 15.4861 28.9949 15.246 28.9949 15C28.9949 14.754 28.966 14.5137 28.9169 14.28L30 13.7306C29.7377 12.8544 29.2164 12.07 28.5041 11.4504V11.4504ZM24.5006 16.8426C23.3419 16.8426 22.4026 16.0178 22.4026 15.0005C22.4026 13.9831 23.3419 13.1583 24.5006 13.1583C25.6582 13.1583 26.5975 13.9831 26.5975 15.0005C26.5975 16.0178 25.6582 16.8426 24.5006 16.8426V16.8426Z" fill="#1782B3"/>
<path d="M24.8846 23.872H25.8823V31H24.8846V23.872ZM33.4994 27.4309C33.4994 28.048 33.4034 28.5863 33.2114 29.0457C33.0194 29.4983 32.7486 29.8754 32.3988 30.1771C32.0491 30.472 31.6308 30.6949 31.144 30.8457C30.6571 30.9897 30.1223 31.0617 29.5394 31.0617C29.2514 31.0617 28.9326 31.048 28.5828 31.0206C28.24 31 27.928 30.9554 27.6468 30.8869V23.9749C27.928 23.9063 28.24 23.8617 28.5828 23.8411C28.9326 23.8137 29.2514 23.8 29.5394 23.8C30.1223 23.8 30.6571 23.8754 31.144 24.0263C31.6308 24.1703 32.0491 24.3931 32.3988 24.6949C32.7486 24.9897 33.0194 25.3669 33.2114 25.8263C33.4034 26.2789 33.4994 26.8137 33.4994 27.4309ZM29.6217 30.1874C30.568 30.1874 31.2743 29.9474 31.7406 29.4674C32.2068 28.9806 32.44 28.3017 32.44 27.4309C32.44 26.56 32.2068 25.8846 31.7406 25.4046C31.2743 24.9177 30.568 24.6743 29.6217 24.6743C29.3406 24.6743 29.1211 24.6777 28.9634 24.6846C28.8126 24.6914 28.7063 24.6983 28.6446 24.7051V30.1566C28.7063 30.1634 28.8126 30.1703 28.9634 30.1771C29.1211 30.184 29.3406 30.1874 29.6217 30.1874Z" fill="#1782B3"/>
</svg>
