<svg width="38" height="38" viewBox="0 0 38 38" fill="none" xmlns="http://www.w3.org/2000/svg">
<rect width="38" height="38" rx="7.6" fill="#9BD8A1"/>
<path d="M14.7524 10.8896H22.1448C22.4484 10.8896 22.6945 10.6435 22.6945 10.3399C22.6945 10.0362 22.4484 9.79012 22.1448 9.79012H14.7524C14.4487 9.79012 14.2027 10.0362 14.2027 10.3399C14.2027 10.6435 14.4487 10.8896 14.7524 10.8896Z" fill="#0D7323" stroke="#0D7323" stroke-width="0.272045"/>
<path d="M30.6365 17.7405V13.2693C30.6365 12.468 29.9846 11.8163 29.1835 11.8163H25.2747V8.10331C25.2747 7.30196 24.6227 6.65026 23.8216 6.65026L8.10308 6.65002C7.30173 6.65002 6.65002 7.30197 6.65002 8.10308V12.5742C6.65002 13.3771 7.30197 14.0305 8.10308 14.0305H12.0116V17.7405C12.0116 18.1484 12.1818 18.5164 12.4535 18.7805C12.1813 19.0449 12.0109 19.4131 12.0109 19.8217V24.2933C12.0109 24.7015 12.1811 25.0695 12.4526 25.3338C12.1811 25.5981 12.0109 25.9661 12.0109 26.3743V30.8458C12.0109 31.6476 12.6631 32.3 13.4651 32.3H29.1819C29.9836 32.3 30.6361 31.6478 30.6361 30.8458L30.6358 26.374C30.6358 25.9658 30.4657 25.5978 30.1942 25.3335C30.4657 25.0692 30.6358 24.7012 30.6358 24.2931V19.8217C30.6358 19.4133 30.4654 19.0453 30.1937 18.781C30.4657 18.5169 30.6365 18.1486 30.6365 17.7405ZM7.47715 12.5742V8.10308C7.47715 7.75794 7.75765 7.47743 8.10279 7.47743H23.8213C24.1665 7.47743 24.447 7.75816 24.447 8.10308V12.5742C24.447 12.921 24.1665 13.2031 23.8213 13.2031H8.10279C7.75741 13.2031 7.47715 12.921 7.47715 12.5742ZM29.8087 26.3744V30.846C29.8087 31.1916 29.5275 31.4727 29.1819 31.4727H13.4652C13.1195 31.4727 12.8384 31.1915 12.8384 30.846V26.3744C12.8384 26.0288 13.1196 25.7476 13.4652 25.7476H29.1819C29.5273 25.7478 29.8087 26.029 29.8087 26.3744ZM13.4649 24.9204C13.1193 24.9204 12.8381 24.6392 12.8381 24.2936V19.822C12.8381 19.4764 13.1193 19.1952 13.4649 19.1952H29.1816C29.5272 19.1952 29.8084 19.4764 29.8084 19.822V24.2936C29.8084 24.6392 29.5272 24.9204 29.1816 24.9204H13.4649Z" fill="#0D7323"/>
<path d="M30.6365 17.7405V13.2693C30.6365 12.468 29.9846 11.8163 29.1835 11.8163H25.2747V8.10331C25.2747 7.30196 24.6227 6.65026 23.8216 6.65026L8.10308 6.65002C7.30173 6.65002 6.65002 7.30197 6.65002 8.10308V12.5742C6.65002 13.3771 7.30197 14.0305 8.10308 14.0305H12.0116V17.7405C12.0116 18.1484 12.1818 18.5164 12.4535 18.7805C12.1813 19.0449 12.0109 19.4131 12.0109 19.8217V24.2933C12.0109 24.7015 12.1811 25.0695 12.4526 25.3338C12.1811 25.5981 12.0109 25.9661 12.0109 26.3743V30.8458C12.0109 31.6476 12.6631 32.3 13.4651 32.3H29.1819C29.9836 32.3 30.6361 31.6478 30.6361 30.8458L30.6358 26.374C30.6358 25.9658 30.4657 25.5978 30.1942 25.3335C30.4657 25.0692 30.6358 24.7012 30.6358 24.2931V19.8217C30.6358 19.4133 30.4654 19.0453 30.1937 18.781C30.4657 18.5169 30.6365 18.1486 30.6365 17.7405ZM7.47715 12.5742V8.10308C7.47715 7.75794 7.75765 7.47743 8.10279 7.47743H23.8213C24.1665 7.47743 24.447 7.75816 24.447 8.10308V12.5742C24.447 12.921 24.1665 13.2031 23.8213 13.2031H8.10279C7.75741 13.2031 7.47715 12.921 7.47715 12.5742ZM29.8087 26.3744V30.846C29.8087 31.1916 29.5275 31.4727 29.1819 31.4727H13.4652C13.1195 31.4727 12.8384 31.1915 12.8384 30.846V26.3744C12.8384 26.0288 13.1196 25.7476 13.4652 25.7476H29.1819C29.5273 25.7478 29.8087 26.029 29.8087 26.3744ZM13.4649 24.9204C13.1193 24.9204 12.8381 24.6392 12.8381 24.2936V19.822C12.8381 19.4764 13.1193 19.1952 13.4649 19.1952H29.1816C29.5272 19.1952 29.8084 19.4764 29.8084 19.822V24.2936C29.8084 24.6392 29.5272 24.9204 29.1816 24.9204H13.4649Z" stroke="#0D7323"/>
<path d="M23.9347 14.1865L18.7715 14.1865H12.8681V17.714C12.8681 18.0419 13.1508 18.3089 13.4985 18.3089L29.3377 18.3091C29.6855 18.3091 29.9681 18.0424 29.9681 17.7142V13.463C29.9681 13.1351 29.6855 12.8682 29.3377 12.8682H25.3977C25.3958 12.9075 25.3854 12.9446 25.38 12.983C25.3742 13.0247 25.3707 13.0666 25.3609 13.1072C25.3493 13.1551 25.3316 13.2003 25.3151 13.2462C25.3012 13.2846 25.2898 13.3241 25.2723 13.361C25.2514 13.4053 25.2248 13.4459 25.1995 13.4876C25.1786 13.5223 25.1599 13.5581 25.136 13.5906C25.1067 13.6303 25.072 13.6654 25.0385 13.7021C25.0113 13.7315 24.9869 13.7629 24.9573 13.7903C24.9199 13.8248 24.8778 13.8538 24.8366 13.8845C24.805 13.908 24.7759 13.9341 24.7424 13.9552C24.6963 13.9841 24.6461 14.0061 24.5968 14.03C24.563 14.0463 24.5316 14.066 24.4965 14.0798C24.4395 14.1022 24.3788 14.1165 24.3185 14.1321C24.2869 14.1402 24.2576 14.1525 24.2253 14.1586C24.1313 14.1766 24.0343 14.1865 23.9347 14.1865Z" fill="#9CD8A1"/>
<path d="M20.1129 16.055H27.5059C27.8096 16.055 28.0556 15.8089 28.0556 15.5053C28.0556 15.2016 27.8096 14.9555 27.5059 14.9555H20.1129C19.8092 14.9555 19.5632 15.2016 19.5632 15.5053C19.5632 15.8087 19.8092 16.055 20.1129 16.055Z" fill="#0D7323" stroke="#0D7323" stroke-width="0.272045"/>
<path d="M27.5059 21.508H20.1129C19.8092 21.508 19.5632 21.7541 19.5632 22.0578C19.5632 22.3614 19.8092 22.6075 20.1129 22.6075H27.5059C27.8096 22.6075 28.0556 22.3614 28.0556 22.0578C28.0556 21.7541 27.8096 21.508 27.5059 21.508Z" fill="#0D7323" stroke="#0D7323" stroke-width="0.272045"/>
<path d="M20.1129 29.16H27.5059C27.8096 29.16 28.0556 28.9139 28.0556 28.6102C28.0556 28.3066 27.8096 28.0605 27.5059 28.0605H20.1129C19.8092 28.0605 19.5632 28.3066 19.5632 28.6102C19.5632 28.9139 19.8092 29.16 20.1129 29.16Z" fill="#0D7323" stroke="#0D7323" stroke-width="0.272045"/>
<path d="M11.9742 10.4975H11.5095L11.6261 9.79793H11.9742C12.0159 9.79793 12.0544 9.7757 12.0752 9.73963C12.096 9.70356 12.096 9.65911 12.0752 9.62304C12.0544 9.58697 12.0159 9.56473 11.9742 9.56473H11.6649L11.7394 9.11759V9.11761C11.7463 9.0765 11.7307 9.03489 11.6985 9.0084C11.6664 8.98192 11.6225 8.97462 11.5835 8.98922C11.5445 9.00384 11.5162 9.03815 11.5094 9.07924L11.4286 9.56474H10.6156L10.6901 9.11762C10.697 9.07651 10.6814 9.03489 10.6492 9.00841C10.6171 8.98192 10.5732 8.97462 10.5342 8.98922C10.4952 9.00384 10.4669 9.03816 10.4601 9.07925L10.3793 9.56475H9.87562C9.83397 9.56475 9.79548 9.58698 9.77465 9.62305C9.75383 9.65912 9.75383 9.70357 9.77465 9.73964C9.79548 9.77571 9.83397 9.79794 9.87562 9.79794H10.3404L10.2238 10.4975H9.87562C9.83397 10.4975 9.79548 10.5197 9.77465 10.5558C9.75383 10.5919 9.75383 10.6363 9.77465 10.6724C9.79548 10.7085 9.83397 10.7307 9.87562 10.7307H10.1849L10.1104 11.1778C10.1036 11.2189 10.1192 11.2606 10.1513 11.287C10.1835 11.3135 10.2273 11.3208 10.2663 11.3062C10.3054 11.2916 10.3336 11.2573 10.3405 11.2162L10.4213 10.7307H11.2341L11.1596 11.1778C11.1528 11.2189 11.1684 11.2605 11.2005 11.287C11.2327 11.3135 11.2766 11.3208 11.3156 11.3062C11.3546 11.2916 11.3828 11.2573 11.3897 11.2162L11.4706 10.7307H11.9743C12.0159 10.7307 12.0544 10.7085 12.0752 10.6724C12.0961 10.6363 12.0961 10.5919 12.0752 10.5558C12.0544 10.5197 12.0159 10.4975 11.9743 10.4975H11.9742ZM10.4602 10.4975L10.5768 9.79793H11.3897L11.2732 10.4975H10.4602Z" fill="#0D7323"/>
<path d="M11.9742 10.4975H11.5095L11.6261 9.79793H11.9742C12.0159 9.79793 12.0544 9.7757 12.0752 9.73963C12.096 9.70356 12.096 9.65911 12.0752 9.62304C12.0544 9.58697 12.0159 9.56473 11.9742 9.56473H11.6649L11.7394 9.11759V9.11761C11.7463 9.0765 11.7307 9.03489 11.6985 9.0084C11.6664 8.98192 11.6225 8.97462 11.5835 8.98922C11.5445 9.00384 11.5162 9.03815 11.5094 9.07924L11.4286 9.56474H10.6156L10.6901 9.11762C10.697 9.07651 10.6814 9.03489 10.6492 9.00841C10.6171 8.98192 10.5732 8.97462 10.5342 8.98922C10.4952 9.00384 10.4669 9.03816 10.4601 9.07925L10.3793 9.56475H9.87562C9.83397 9.56475 9.79548 9.58698 9.77465 9.62305C9.75383 9.65912 9.75383 9.70357 9.77465 9.73964C9.79548 9.77571 9.83397 9.79794 9.87562 9.79794H10.3404L10.2238 10.4975H9.87562C9.83397 10.4975 9.79548 10.5197 9.77465 10.5558C9.75383 10.5919 9.75383 10.6363 9.77465 10.6724C9.79548 10.7085 9.83397 10.7307 9.87562 10.7307H10.1849L10.1104 11.1778C10.1036 11.2189 10.1192 11.2606 10.1513 11.287C10.1835 11.3135 10.2273 11.3208 10.2663 11.3062C10.3054 11.2916 10.3336 11.2573 10.3405 11.2162L10.4213 10.7307H11.2341L11.1596 11.1778C11.1528 11.2189 11.1684 11.2605 11.2005 11.287C11.2327 11.3135 11.2766 11.3208 11.3156 11.3062C11.3546 11.2916 11.3828 11.2573 11.3897 11.2162L11.4706 10.7307H11.9743C12.0159 10.7307 12.0544 10.7085 12.0752 10.6724C12.0961 10.6363 12.0961 10.5919 12.0752 10.5558C12.0544 10.5197 12.0159 10.4975 11.9743 10.4975H11.9742ZM10.4602 10.4975L10.5768 9.79793H11.3897L11.2732 10.4975H10.4602Z" stroke="#0D7323"/>
<path d="M17.4152 28.8179H16.9505L17.0671 28.1183H17.4152C17.4569 28.1183 17.4954 28.0961 17.5162 28.06C17.537 28.0239 17.537 27.9795 17.5162 27.9434C17.4954 27.9073 17.4569 27.8851 17.4152 27.8851H17.1059L17.1804 27.438V27.438C17.1873 27.3969 17.1717 27.3553 17.1395 27.3288C17.1074 27.3023 17.0635 27.295 17.0245 27.3096C16.9855 27.3242 16.9572 27.3585 16.9504 27.3996L16.8696 27.8851H16.0566L16.1311 27.438C16.138 27.3969 16.1224 27.3553 16.0902 27.3288C16.0581 27.3023 16.0142 27.295 15.9752 27.3096C15.9362 27.3242 15.9079 27.3585 15.9011 27.3996L15.8203 27.8851H15.3166C15.2749 27.8851 15.2365 27.9074 15.2156 27.9434C15.1948 27.9795 15.1948 28.0239 15.2156 28.06C15.2365 28.0961 15.2749 28.1183 15.3166 28.1183H15.7813L15.6648 28.8179H15.3166C15.2749 28.8179 15.2365 28.8401 15.2156 28.8762C15.1948 28.9123 15.1948 28.9567 15.2156 28.9928C15.2365 29.0288 15.2749 29.0511 15.3166 29.0511H15.6259L15.5514 29.4982C15.5446 29.5393 15.5602 29.5809 15.5923 29.6074C15.6245 29.6339 15.6683 29.6412 15.7073 29.6266C15.7463 29.612 15.7746 29.5777 15.7815 29.5366L15.8622 29.0511H16.6751L16.6006 29.4982C16.5938 29.5393 16.6094 29.5809 16.6415 29.6074C16.6737 29.6339 16.7175 29.6412 16.7565 29.6266C16.7956 29.612 16.8238 29.5777 16.8307 29.5366L16.9116 29.0511H17.4152C17.4569 29.0511 17.4954 29.0288 17.5162 28.9928C17.537 28.9567 17.537 28.9122 17.5162 28.8762C17.4954 28.8401 17.4569 28.8179 17.4152 28.8179H17.4152ZM15.9012 28.8179L16.0177 28.1183H16.8307L16.7141 28.8179H15.9012Z" fill="#0D7323"/>
<path d="M17.4152 28.8179H16.9505L17.0671 28.1183H17.4152C17.4569 28.1183 17.4954 28.0961 17.5162 28.06C17.537 28.0239 17.537 27.9795 17.5162 27.9434C17.4954 27.9073 17.4569 27.8851 17.4152 27.8851H17.1059L17.1804 27.438V27.438C17.1873 27.3969 17.1717 27.3553 17.1395 27.3288C17.1074 27.3023 17.0635 27.295 17.0245 27.3096C16.9855 27.3242 16.9572 27.3585 16.9504 27.3996L16.8696 27.8851H16.0566L16.1311 27.438C16.138 27.3969 16.1224 27.3553 16.0902 27.3288C16.0581 27.3023 16.0142 27.295 15.9752 27.3096C15.9362 27.3242 15.9079 27.3585 15.9011 27.3996L15.8203 27.8851H15.3166C15.2749 27.8851 15.2365 27.9074 15.2156 27.9434C15.1948 27.9795 15.1948 28.0239 15.2156 28.06C15.2365 28.0961 15.2749 28.1183 15.3166 28.1183H15.7813L15.6648 28.8179H15.3166C15.2749 28.8179 15.2365 28.8401 15.2156 28.8762C15.1948 28.9123 15.1948 28.9567 15.2156 28.9928C15.2365 29.0288 15.2749 29.0511 15.3166 29.0511H15.6259L15.5514 29.4982C15.5446 29.5393 15.5602 29.5809 15.5923 29.6074C15.6245 29.6339 15.6683 29.6412 15.7073 29.6266C15.7463 29.612 15.7746 29.5777 15.7815 29.5366L15.8622 29.0511H16.6751L16.6006 29.4982C16.5938 29.5393 16.6094 29.5809 16.6415 29.6074C16.6737 29.6339 16.7175 29.6412 16.7565 29.6266C16.7956 29.612 16.8238 29.5777 16.8307 29.5366L16.9116 29.0511H17.4152C17.4569 29.0511 17.4954 29.0288 17.5162 28.9928C17.537 28.9567 17.537 28.9122 17.5162 28.8762C17.4954 28.8401 17.4569 28.8179 17.4152 28.8179H17.4152ZM15.9012 28.8179L16.0177 28.1183H16.8307L16.7141 28.8179H15.9012Z" stroke="#0D7323"/>
<path d="M17.4152 22.1566H16.9505L17.0671 21.457H17.4152C17.4569 21.457 17.4954 21.4348 17.5162 21.3987C17.537 21.3627 17.537 21.3182 17.5162 21.2822C17.4954 21.2461 17.4569 21.2239 17.4152 21.2239H17.1059L17.1804 20.7767V20.7767C17.1873 20.7356 17.1717 20.694 17.1395 20.6675C17.1074 20.641 17.0635 20.6337 17.0245 20.6483C16.9855 20.663 16.9572 20.6973 16.9504 20.7384L16.8696 21.2239H16.0566L16.1311 20.7767C16.138 20.7356 16.1224 20.694 16.0902 20.6675C16.0581 20.641 16.0142 20.6337 15.9752 20.6483C15.9362 20.663 15.9079 20.6973 15.9011 20.7384L15.8203 21.2239H15.3166C15.2749 21.2239 15.2365 21.2461 15.2156 21.2822C15.1948 21.3182 15.1948 21.3627 15.2156 21.3988C15.2365 21.4348 15.2749 21.4571 15.3166 21.4571H15.7813L15.6648 22.1566H15.3166C15.2749 22.1566 15.2365 22.1789 15.2156 22.2149C15.1948 22.251 15.1948 22.2954 15.2156 22.3315C15.2365 22.3676 15.2749 22.3898 15.3166 22.3898H15.6259L15.5514 22.8369C15.5446 22.8781 15.5602 22.9197 15.5923 22.9462C15.6245 22.9726 15.6683 22.9799 15.7073 22.9653C15.7463 22.9507 15.7746 22.9164 15.7815 22.8753L15.8622 22.3898H16.6751L16.6006 22.8369C16.5938 22.8781 16.6094 22.9197 16.6415 22.9462C16.6737 22.9726 16.7175 22.9799 16.7565 22.9653C16.7956 22.9507 16.8238 22.9164 16.8307 22.8753L16.9116 22.3898H17.4152C17.4569 22.3898 17.4954 22.3676 17.5162 22.3315C17.537 22.2954 17.537 22.251 17.5162 22.2149C17.4954 22.1788 17.4569 22.1566 17.4152 22.1566H17.4152ZM15.9012 22.1566L16.0177 21.457H16.8307L16.7141 22.1566H15.9012Z" fill="#0D7323"/>
<path d="M17.4152 22.1566H16.9505L17.0671 21.457H17.4152C17.4569 21.457 17.4954 21.4348 17.5162 21.3987C17.537 21.3627 17.537 21.3182 17.5162 21.2822C17.4954 21.2461 17.4569 21.2239 17.4152 21.2239H17.1059L17.1804 20.7767V20.7767C17.1873 20.7356 17.1717 20.694 17.1395 20.6675C17.1074 20.641 17.0635 20.6337 17.0245 20.6483C16.9855 20.663 16.9572 20.6973 16.9504 20.7384L16.8696 21.2239H16.0566L16.1311 20.7767C16.138 20.7356 16.1224 20.694 16.0902 20.6675C16.0581 20.641 16.0142 20.6337 15.9752 20.6483C15.9362 20.663 15.9079 20.6973 15.9011 20.7384L15.8203 21.2239H15.3166C15.2749 21.2239 15.2365 21.2461 15.2156 21.2822C15.1948 21.3182 15.1948 21.3627 15.2156 21.3988C15.2365 21.4348 15.2749 21.4571 15.3166 21.4571H15.7813L15.6648 22.1566H15.3166C15.2749 22.1566 15.2365 22.1789 15.2156 22.2149C15.1948 22.251 15.1948 22.2954 15.2156 22.3315C15.2365 22.3676 15.2749 22.3898 15.3166 22.3898H15.6259L15.5514 22.8369C15.5446 22.8781 15.5602 22.9197 15.5923 22.9462C15.6245 22.9726 15.6683 22.9799 15.7073 22.9653C15.7463 22.9507 15.7746 22.9164 15.7815 22.8753L15.8622 22.3898H16.6751L16.6006 22.8369C16.5938 22.8781 16.6094 22.9197 16.6415 22.9462C16.6737 22.9726 16.7175 22.9799 16.7565 22.9653C16.7956 22.9507 16.8238 22.9164 16.8307 22.8753L16.9116 22.3898H17.4152C17.4569 22.3898 17.4954 22.3676 17.5162 22.3315C17.537 22.2954 17.537 22.251 17.5162 22.2149C17.4954 22.1788 17.4569 22.1566 17.4152 22.1566H17.4152ZM15.9012 22.1566L16.0177 21.457H16.8307L16.7141 22.1566H15.9012Z" stroke="#0D7323"/>
<path d="M17.4152 15.9384H16.9505L17.0671 15.2388H17.4152C17.4569 15.2388 17.4954 15.2166 17.5162 15.1805C17.537 15.1445 17.537 15.1 17.5162 15.064C17.4954 15.0279 17.4569 15.0057 17.4152 15.0057H17.1059L17.1804 14.5585V14.5585C17.1873 14.5174 17.1717 14.4758 17.1395 14.4493C17.1074 14.4228 17.0635 14.4155 17.0245 14.4301C16.9855 14.4448 16.9572 14.4791 16.9504 14.5202L16.8696 15.0057H16.0566L16.1311 14.5585C16.138 14.5174 16.1224 14.4758 16.0902 14.4493C16.0581 14.4228 16.0142 14.4155 15.9752 14.4301C15.9362 14.4448 15.9079 14.4791 15.9011 14.5202L15.8203 15.0057H15.3166C15.2749 15.0057 15.2365 15.0279 15.2156 15.064C15.1948 15.1 15.1948 15.1445 15.2156 15.1806C15.2365 15.2166 15.2749 15.2389 15.3166 15.2389H15.7813L15.6648 15.9384H15.3166C15.2749 15.9384 15.2365 15.9607 15.2156 15.9967C15.1948 16.0328 15.1948 16.0772 15.2156 16.1133C15.2365 16.1494 15.2749 16.1716 15.3166 16.1716H15.6259L15.5514 16.6187C15.5446 16.6599 15.5602 16.7015 15.5923 16.728C15.6245 16.7544 15.6683 16.7617 15.7073 16.7471C15.7463 16.7325 15.7746 16.6982 15.7815 16.6571L15.8622 16.1716H16.6751L16.6006 16.6187C16.5938 16.6599 16.6094 16.7015 16.6415 16.728C16.6737 16.7544 16.7175 16.7617 16.7565 16.7471C16.7956 16.7325 16.8238 16.6982 16.8307 16.6571L16.9116 16.1716H17.4152C17.4569 16.1716 17.4954 16.1494 17.5162 16.1133C17.537 16.0772 17.537 16.0328 17.5162 15.9967C17.4954 15.9606 17.4569 15.9384 17.4152 15.9384H17.4152ZM15.9012 15.9384L16.0177 15.2388H16.8307L16.7141 15.9384H15.9012Z" fill="#0D7323"/>
<path d="M17.4152 15.9384H16.9505L17.0671 15.2388H17.4152C17.4569 15.2388 17.4954 15.2166 17.5162 15.1805C17.537 15.1445 17.537 15.1 17.5162 15.064C17.4954 15.0279 17.4569 15.0057 17.4152 15.0057H17.1059L17.1804 14.5585V14.5585C17.1873 14.5174 17.1717 14.4758 17.1395 14.4493C17.1074 14.4228 17.0635 14.4155 17.0245 14.4301C16.9855 14.4448 16.9572 14.4791 16.9504 14.5202L16.8696 15.0057H16.0566L16.1311 14.5585C16.138 14.5174 16.1224 14.4758 16.0902 14.4493C16.0581 14.4228 16.0142 14.4155 15.9752 14.4301C15.9362 14.4448 15.9079 14.4791 15.9011 14.5202L15.8203 15.0057H15.3166C15.2749 15.0057 15.2365 15.0279 15.2156 15.064C15.1948 15.1 15.1948 15.1445 15.2156 15.1806C15.2365 15.2166 15.2749 15.2389 15.3166 15.2389H15.7813L15.6648 15.9384H15.3166C15.2749 15.9384 15.2365 15.9607 15.2156 15.9967C15.1948 16.0328 15.1948 16.0772 15.2156 16.1133C15.2365 16.1494 15.2749 16.1716 15.3166 16.1716H15.6259L15.5514 16.6187C15.5446 16.6599 15.5602 16.7015 15.5923 16.728C15.6245 16.7544 15.6683 16.7617 15.7073 16.7471C15.7463 16.7325 15.7746 16.6982 15.7815 16.6571L15.8622 16.1716H16.6751L16.6006 16.6187C16.5938 16.6599 16.6094 16.7015 16.6415 16.728C16.6737 16.7544 16.7175 16.7617 16.7565 16.7471C16.7956 16.7325 16.8238 16.6982 16.8307 16.6571L16.9116 16.1716H17.4152C17.4569 16.1716 17.4954 16.1494 17.5162 16.1133C17.537 16.0772 17.537 16.0328 17.5162 15.9967C17.4954 15.9606 17.4569 15.9384 17.4152 15.9384H17.4152ZM15.9012 15.9384L16.0177 15.2388H16.8307L16.7141 15.9384H15.9012Z" stroke="#0D7323"/>
</svg>
