<svg width="40" height="40" viewBox="0 0 40 40" fill="none" xmlns="http://www.w3.org/2000/svg">
<rect width="40" height="40" rx="8" fill="#A9EBE7"/>
<path d="M30.6356 11.8085L27.1761 8.36959C26.9188 8.14219 26.6043 8.00005 26.2898 8.00005C25.9753 8.00005 25.6323 8.1422 25.375 8.36959L21.9441 11.8085C21.4581 12.2916 21.4581 13.0874 21.9441 13.5705C22.4301 14.0537 23.2306 14.0537 23.7166 13.5705L25.0319 12.263V18.8568L20.0001 23.319L14.9683 18.8853V12.2632L16.2835 13.5707C16.5408 13.8264 16.8553 13.9402 17.1697 13.9402C17.4842 13.9402 17.8273 13.8266 18.056 13.5707C18.542 13.0875 18.542 12.2918 18.056 11.8086L14.625 8.36954C14.3678 8.14214 14.0533 8 13.7102 8C13.3672 8 13.0527 8.14215 12.824 8.36954L9.3645 11.8084C8.8785 12.2915 8.8785 13.0873 9.3645 13.5705C9.85051 14.0536 10.651 14.0536 11.137 13.5705L12.4523 12.263V19.4251C12.4523 19.7947 12.5953 20.1357 12.8811 20.363L18.742 25.5641V33.7494C18.742 34.4316 19.3138 35 20 35C20.6863 35 21.258 34.4316 21.258 33.7494V25.5641L27.119 20.363C27.3763 20.1356 27.5478 19.7947 27.5478 19.4251V12.263L28.863 13.5705C29.1203 13.8262 29.4348 13.94 29.7493 13.94C30.0638 13.94 30.4068 13.8264 30.6355 13.5705C31.1215 13.0871 31.1215 12.2914 30.6355 11.8082L30.6356 11.8085Z" fill="#1782B3"/>
</svg>
