<svg width="40" height="40" viewBox="0 0 40 40" fill="none" xmlns="http://www.w3.org/2000/svg">
<rect width="40" height="40" rx="8" fill="#9BD8A1"/>
<path d="M27.63 29.174H32.9238H26.4956" stroke="#0D7323" stroke-width="1.51515" stroke-linejoin="round"/>
<path d="M30.7181 29.174L25.4242 29.174L31.8525 29.174" stroke="#0D7323" stroke-width="1.51515" stroke-linejoin="round"/>
<path d="M29.1741 30.7181V25.4242V31.8525" stroke="#0D7323" stroke-width="1.51515" stroke-linejoin="round"/>
<path d="M29.1741 27.63L29.1741 32.9238L29.1741 26.4956" stroke="#0D7323" stroke-width="1.51515" stroke-linejoin="round"/>
<path d="M8 8V33H14.3953M8 8H14.3953M8 8H20.7907M33 22.4231V8H26.6047H20.7907M14.3953 8V33M14.3953 8H20.7907M14.3953 33H20.7907V8" stroke="#0D7323" stroke-width="1.51515" stroke-linejoin="round"/>
<path d="M26.9394 8V13.303V22.3939" stroke="#0D7323" stroke-width="1.51515" stroke-linejoin="round"/>
<rect x="15.5757" y="8.91589" width="4.01515" height="23.1061" rx="1.06061" fill="#0D7323"/>
<path d="M26.9394 12.1667V22.394V10.6516" stroke="#0D7323" stroke-width="1.51515" stroke-linejoin="round"/>
<path d="M33 15.5758V22.3939V14.8182" stroke="#0D7323" stroke-width="1.51515" stroke-linejoin="round"/>
<path d="M8 12.5H14" stroke="#0D7323"/>
<path d="M8 28.5H14" stroke="#0D7323"/>
<path d="M8 24.5H14" stroke="#0D7323"/>
<path d="M8 20.5H14" stroke="#0D7323"/>
<path d="M8 16.5H14" stroke="#0D7323"/>
<path d="M21 12.5H33" stroke="#0D7323"/>
<path d="M21 20.5H33" stroke="#0D7323"/>
<path d="M21 16.5H33" stroke="#0D7323"/>
<path d="M8 12.5H14" stroke="#0D7323"/>
<path d="M8 28.5H14" stroke="#0D7323"/>
<path d="M8 24.5H14" stroke="#0D7323"/>
<path d="M8 20.5H14" stroke="#0D7323"/>
<path d="M21 12.5H33" stroke="#0D7323"/>
<path d="M21 16.5H33" stroke="#0D7323"/>
</svg>
