<svg width="40" height="40" viewBox="0 0 40 40" fill="none" xmlns="http://www.w3.org/2000/svg">
<g clip-path="url(#clip0_230_6374)">
<path d="M32 0H8C3.58172 0 0 3.58172 0 8V32C0 36.4183 3.58172 40 8 40H32C36.4183 40 40 36.4183 40 32V8C40 3.58172 36.4183 0 32 0Z" fill="#9BD8A1"/>
<path d="M9.63245 18.1578H11.5127V19.8646H9.63245V18.1578Z" fill="#0D7323"/>
<path d="M12.236 25.4767H16.3727V27.1835H12.236V25.4767Z" fill="#0D7323"/>
<path d="M9.63245 25.4767H11.5127V27.1835H9.63245V25.4767Z" fill="#0D7323"/>
<path d="M12.236 23.0468H16.3727V24.7536H12.236V23.0468Z" fill="#0D7323"/>
<path d="M9.63245 23.0468H11.5127V24.7536H9.63245V23.0468Z" fill="#0D7323"/>
<path d="M9.63245 20.5878H11.5127V22.2946H9.63245V20.5878Z" fill="#0D7323"/>
<path d="M17.0961 18.1578H30.2586V19.8646H17.0961V18.1578Z" fill="#0D7323"/>
<path d="M31.4157 10H8.61995C7.72322 10 7 10.7232 7 11.62V28.0804C7 28.9771 7.72322 29.7003 8.61995 29.7003H31.4157C32.3125 29.7003 33.0357 28.9771 33.0357 28.0804V11.62C33.0357 10.752 32.2836 10 31.4157 10ZM9.34317 12.4588H21.3486C21.6089 12.4588 21.8115 12.6614 21.8115 12.9217C21.8115 13.1821 21.6089 13.3846 21.3486 13.3846H9.34317C9.08286 13.3846 8.88027 13.182 8.88027 12.9217C8.90932 12.6324 9.11172 12.4588 9.34317 12.4588ZM9.34317 14.3103H16.9803C17.2406 14.3103 17.4432 14.5129 17.4432 14.7732C17.4432 15.0335 17.2406 15.2361 16.9803 15.2361H9.34317C9.08286 15.2361 8.88027 15.0335 8.88027 14.7732C8.90932 14.5129 9.11172 14.3103 9.34317 14.3103ZM31.0107 27.5596C31.0107 27.7622 30.8661 27.9067 30.6637 27.9067H30.6348L9.28493 27.9069H9.25608C9.05348 27.9069 8.90899 27.7333 8.90899 27.5598V17.7819C8.90899 17.5793 9.08253 17.4348 9.25608 17.4348H30.6344C30.837 17.4348 30.9814 17.6084 30.9814 17.7819L31.0107 27.5596Z" fill="#0D7323"/>
<path d="M17.0961 20.5878H30.2586V22.2946H17.0961V20.5878Z" fill="#0D7323"/>
<path d="M12.236 18.1578H16.3727V19.8646H12.236V18.1578Z" fill="#0D7323"/>
<path d="M12.236 20.5878H16.3727V22.2946H12.236V20.5878Z" fill="#0D7323"/>
<path d="M17.0961 25.4767H30.2586V27.1835H17.0961V25.4767Z" fill="#0D7323"/>
<path d="M17.0961 23.0468H30.2586V24.7536H17.0961V23.0468Z" fill="#0D7323"/>
<path d="M34.5714 23H24.9286C23.8635 23 23 23.8635 23 24.9286V34.5714C23 35.6365 23.8635 36.5 24.9286 36.5H34.5714C35.6365 36.5 36.5 35.6365 36.5 34.5714V24.9286C36.5 23.8635 35.6365 23 34.5714 23Z" fill="#9CD8A1"/>
<path d="M32.2206 27.6137H26.4052L25.2667 26.4366" stroke="#0D7323" stroke-width="1.31072" stroke-linejoin="round"/>
<path d="M26.1592 27.3679L25.0077 26.16L26.4059 27.6267" stroke="#0D7323" stroke-width="1.31072" stroke-linejoin="round"/>
<path d="M30.3333 26L33 27.6L30.3333 29.2" stroke="#0D7323" stroke-width="1.31072" stroke-linejoin="round"/>
<path d="M31.6666 26.8L30.3333 26L33 27.6" stroke="#0D7323" stroke-width="1.31072" stroke-linejoin="round"/>
<path d="M32.4398 27.9361L30.3333 29.2L33 27.6" stroke="#0D7323" stroke-width="1.31072" stroke-linejoin="round"/>
</g>
<defs>
<clipPath id="clip0_230_6374">
<rect width="40" height="40" fill="white"/>
</clipPath>
</defs>
</svg>
