<svg width="40" height="40" viewBox="0 0 40 40" fill="none" xmlns="http://www.w3.org/2000/svg">
<rect width="40" height="40" rx="8" fill="#9BD8A1"/>
<path d="M24.4997 14.5001C24.4997 14.3674 24.447 14.2404 24.3533 14.1464C24.2595 14.0527 24.1323 14.0001 23.9998 14.0001H19.4998V16.0001H24.4997L24.4997 14.5001Z" fill="#0D7323"/>
<path d="M13.9996 24.5003H18.4997V26.0003H13.9996V24.5003Z" fill="#0D7323"/>
<path d="M19.9996 24.5003H24.4997V26.0003H19.9996V24.5003Z" fill="#0D7323"/>
<path d="M13.9996 27H18.4997V29H13.9996V27Z" fill="#0D7323"/>
<path d="M13.9996 22.0001H18.4997V23.5001H13.9996V22.0001Z" fill="#0D7323"/>
<path d="M20 22H24.5V23.5H20V22Z" fill="#0D7323"/>
<path d="M19.4999 17.0002H24.4999V18.5003H19.4999V17.0002Z" fill="#0D7323"/>
<path d="M13.9996 19.4999H18.4997V21H13.9996V19.4999Z" fill="#0D7323"/>
<path d="M19.4999 19.4999H24.4999V21H19.4999V19.4999Z" fill="#0D7323"/>
<path d="M11.4994 14.5V28.5C11.4994 28.6327 11.5521 28.7599 11.6459 28.8537C11.7396 28.9474 11.8669 29.0002 11.9995 29.0002H12.9996L12.9994 14H11.9995C11.7233 14 11.4994 14.2237 11.4994 14.4999L11.4994 14.5Z" fill="#0D7323"/>
<path d="M13.9996 17.0002H18.4997V18.5003H13.9996V17.0002Z" fill="#0D7323"/>
<path d="M13.9996 14.0002H18.4997V16.0001H13.9996V14.0002Z" fill="#0D7323"/>
<path d="M19.4999 23.5001H22.6415C23.0439 22.9462 23.5114 22.4427 24.0339 22.0001H19.4999V23.5001Z" fill="#0D7323"/>
<path d="M19.4999 27V29H21.0255C21.0155 28.8334 21 28.6689 21 28.5C21.0025 27.9969 21.0494 27.4949 21.1404 27H19.4999Z" fill="#0D7323"/>
<path d="M24.4998 8.70697V10.5H26.2928L24.4998 8.70697Z" fill="#0D7323"/>
<path d="M22.0038 24.5003H19.5V26.0003H21.3765C21.537 25.4811 21.7471 24.9789 22.0038 24.5003Z" fill="#0D7323"/>
<path d="M21.1403 30H11.9998C11.602 30 11.2203 29.8421 10.939 29.5608C10.6578 29.2795 10.4998 28.8978 10.4998 28.5V14.5C10.4998 14.1022 10.6578 13.7207 10.939 13.4393C11.2203 13.158 11.602 13 11.9998 13H23.9999C24.3978 13 24.7793 13.158 25.0605 13.4393C25.3418 13.7207 25.5 14.1022 25.5 14.5V30.6232C25.9785 30.3664 26.4808 24.6605 27 24.5V11.5H24.4999C24.2347 11.5 23.9803 11.3947 23.7928 11.207C23.6053 11.0195 23.4998 10.7652 23.4998 10.4999V8H9V32.0003H21.763C21.473 31.362 21.2635 30.6902 21.1403 30Z" fill="#0D7323"/>
<rect x="21" y="24" width="14" height="14" rx="2" fill="#9CD8A1"/>
<path d="M30.2206 28.6137H24.4052L23.2667 27.4366" stroke="#0D7323" stroke-width="1.31072" stroke-linejoin="round"/>
<path d="M24.1592 28.3679L23.0077 27.16L24.4059 28.6267" stroke="#0D7323" stroke-width="1.31072" stroke-linejoin="round"/>
<path d="M28.3333 27L31 28.6L28.3333 30.2" stroke="#0D7323" stroke-width="1.31072" stroke-linejoin="round"/>
<path d="M29.6666 27.8L28.3333 27L31 28.6" stroke="#0D7323" stroke-width="1.31072" stroke-linejoin="round"/>
<path d="M30.4398 28.9361L28.3333 30.2L31 28.6" stroke="#0D7323" stroke-width="1.31072" stroke-linejoin="round"/>
</svg>
