<svg width="40" height="40" viewBox="0 0 40 40" fill="none" xmlns="http://www.w3.org/2000/svg">
<rect width="40" height="40" rx="8" fill="#9BD8A1"/>
<path d="M9.63245 17.1578H11.5127V18.8646H9.63245V17.1578Z" fill="#0D7323"/>
<path d="M12.236 24.4768H16.3727V26.1835H12.236V24.4768Z" fill="#0D7323"/>
<path d="M9.63245 24.4768H11.5127V26.1835H9.63245V24.4768Z" fill="#0D7323"/>
<path d="M12.236 22.0469H16.3727V23.7536H12.236V22.0469Z" fill="#0D7323"/>
<path d="M9.63245 22.0469H11.5127V23.7536H9.63245V22.0469Z" fill="#0D7323"/>
<path d="M9.63245 19.5879H11.5127V21.2946H9.63245V19.5879Z" fill="#0D7323"/>
<path d="M17.0961 17.1578H30.2586V18.8646H17.0961V17.1578Z" fill="#0D7323"/>
<path d="M31.4157 9H8.61995C7.72322 9 7 9.72322 7 10.62V27.0804C7 27.9771 7.72322 28.7003 8.61995 28.7003H31.4157C32.3125 28.7003 33.0357 27.9771 33.0357 27.0804V10.62C33.0357 9.75204 32.2836 9 31.4157 9ZM9.34317 11.4588H21.3486C21.6089 11.4588 21.8115 11.6614 21.8115 11.9217C21.8115 12.1821 21.6089 12.3846 21.3486 12.3846H9.34317C9.08286 12.3846 8.88027 12.182 8.88027 11.9217C8.90932 11.6324 9.11172 11.4588 9.34317 11.4588ZM9.34317 13.3103H16.9803C17.2406 13.3103 17.4432 13.5129 17.4432 13.7732C17.4432 14.0335 17.2406 14.2361 16.9803 14.2361H9.34317C9.08286 14.2361 8.88027 14.0335 8.88027 13.7732C8.90932 13.5129 9.11172 13.3103 9.34317 13.3103ZM31.0107 26.5596C31.0107 26.7622 30.8661 26.9067 30.6637 26.9067H30.6348L9.28493 26.9069H9.25608C9.05348 26.9069 8.90899 26.7333 8.90899 26.5598V16.7819C8.90899 16.5793 9.08253 16.4348 9.25608 16.4348H30.6344C30.837 16.4348 30.9814 16.6084 30.9814 16.7819L31.0107 26.5596Z" fill="#0D7323"/>
<path d="M17.0961 19.5879H30.2586V21.2946H17.0961V19.5879Z" fill="#0D7323"/>
<path d="M12.236 17.1578H16.3727V18.8646H12.236V17.1578Z" fill="#0D7323"/>
<path d="M12.236 19.5879H16.3727V21.2946H12.236V19.5879Z" fill="#0D7323"/>
<path d="M17.0961 24.4768H30.2586V26.1835H17.0961V24.4768Z" fill="#0D7323"/>
<path d="M17.0961 22.0469H30.2586V23.7536H17.0961V22.0469Z" fill="#0D7323"/>
<rect x="23" y="22" width="13.5" height="13.5" rx="1.92857" fill="#9CD8A1"/>
<path d="M27.63 27.1741H32.9238H26.4956" stroke="#0D7323" stroke-width="1.51515" stroke-linejoin="round"/>
<path d="M30.7181 27.1741L25.4242 27.1741L31.8525 27.1741" stroke="#0D7323" stroke-width="1.51515" stroke-linejoin="round"/>
<path d="M29.1741 28.7181V23.4243V29.8525" stroke="#0D7323" stroke-width="1.51515" stroke-linejoin="round"/>
<path d="M29.1741 25.6301L29.1741 30.924L29.1741 24.4957" stroke="#0D7323" stroke-width="1.51515" stroke-linejoin="round"/>
</svg>
