<svg width="40" height="40" viewBox="0 0 40 40" fill="none" xmlns="http://www.w3.org/2000/svg">
<rect width="40" height="40" rx="8" fill="#9BD8A1"/>
<path d="M24.4997 13.5001C24.4997 13.3674 24.447 13.2404 24.3533 13.1464C24.2595 13.0527 24.1323 13.0001 23.9998 13.0001H19.4998V15.0001H24.4997L24.4997 13.5001Z" fill="#0D7323"/>
<path d="M13.9996 23.5002H18.4997V25.0003H13.9996V23.5002Z" fill="#0D7323"/>
<path d="M19.9996 23.5002H24.4997V25.0003H19.9996V23.5002Z" fill="#0D7323"/>
<path d="M13.9996 26H18.4997V28H13.9996V26Z" fill="#0D7323"/>
<path d="M13.9996 21.0001H18.4997V22.5001H13.9996V21.0001Z" fill="#0D7323"/>
<path d="M20 21H24.5V22.5H20V21Z" fill="#0D7323"/>
<path d="M19.4999 16.0002H24.4999V17.5003H19.4999V16.0002Z" fill="#0D7323"/>
<path d="M13.9996 18.5H18.4997V20H13.9996V18.5Z" fill="#0D7323"/>
<path d="M19.4999 18.5H24.4999V20H19.4999V18.5Z" fill="#0D7323"/>
<path d="M11.4994 13.5V27.5C11.4994 27.6327 11.5521 27.7599 11.6459 27.8537C11.7396 27.9474 11.8669 28.0002 11.9995 28.0002H12.9996L12.9994 13H11.9995C11.7233 13 11.4994 13.2237 11.4994 13.4999L11.4994 13.5Z" fill="#0D7323"/>
<path d="M13.9996 16.0002H18.4997V17.5003H13.9996V16.0002Z" fill="#0D7323"/>
<path d="M13.9996 13.0002H18.4997V15.0002H13.9996V13.0002Z" fill="#0D7323"/>
<path d="M19.4999 22.5001H22.6415C23.0439 21.9462 23.5114 21.4427 24.0339 21.0001H19.4999V22.5001Z" fill="#0D7323"/>
<path d="M19.4999 26V28H21.0255C21.0155 27.8334 21 27.6689 21 27.5C21.0025 26.9969 21.0494 26.4949 21.1404 26H19.4999Z" fill="#0D7323"/>
<path d="M24.4998 7.70703V9.50003H26.2928L24.4998 7.70703Z" fill="#0D7323"/>
<path d="M22.0038 23.5002H19.5V25.0003H21.3765C21.537 24.4811 21.7471 23.9789 22.0038 23.5002Z" fill="#0D7323"/>
<path d="M21.1403 29H11.9998C11.602 29 11.2203 28.8421 10.939 28.5608C10.6578 28.2795 10.4998 27.8978 10.4998 27.5V13.5C10.4998 13.1022 10.6578 12.7207 10.939 12.4393C11.2203 12.158 11.602 12 11.9998 12H23.9999C24.3978 12 24.7793 12.158 25.0605 12.4393C25.3418 12.7207 25.5 13.1022 25.5 13.5V29.6232C25.9785 29.3664 26.4808 23.6605 27 23.5V10.5H24.4999C24.2347 10.5 23.9803 10.3947 23.7928 10.207C23.6053 10.0195 23.4998 9.76522 23.4998 9.49989V7H9V31.0003H21.763C21.473 30.362 21.2635 29.6902 21.1403 29Z" fill="#0D7323"/>
<rect x="21" y="23" width="14" height="14" rx="2" fill="#9CD8A1"/>
<path d="M25.63 29.1741H30.9238H24.4956" stroke="#0D7323" stroke-width="1.51515" stroke-linejoin="round"/>
<path d="M28.7181 29.1741L23.4242 29.1741L29.8525 29.1741" stroke="#0D7323" stroke-width="1.51515" stroke-linejoin="round"/>
<path d="M27.1741 30.7181V25.4243V31.8525" stroke="#0D7323" stroke-width="1.51515" stroke-linejoin="round"/>
<path d="M27.1741 27.6301L27.1741 32.924L27.1741 26.4957" stroke="#0D7323" stroke-width="1.51515" stroke-linejoin="round"/>
</svg>
