<svg width="40" height="40" viewBox="0 0 40 40" fill="none" xmlns="http://www.w3.org/2000/svg">
<rect width="40" height="40" rx="8" fill="#9BD8A1"/>
<path d="M8 8V33H14.3953M8 8H14.3953M8 8H20.7907M33 22.4231V8H26.6047H20.7907M14.3953 8V33M14.3953 8H20.7907M14.3953 33H20.7907V8" stroke="#0D7323" stroke-width="1.51515" stroke-linejoin="round"/>
<path d="M26.9394 8V13.303V22.3939" stroke="#0D7323" stroke-width="1.51515" stroke-linejoin="round"/>
<rect x="15.6" y="9" width="4" height="2.7" rx="1.06061" fill="#0D7323"/>
<path d="M26.9394 12.1668V22.394V10.6516" stroke="#0D7323" stroke-width="1.51515" stroke-linejoin="round"/>
<path d="M33 15.5757V22.3939V14.8181" stroke="#0D7323" stroke-width="1.51515" stroke-linejoin="round"/>
<path d="M8 12.5H14" stroke="#0D7323"/>
<path d="M8 28.5H14" stroke="#0D7323"/>
<path d="M8 24.5H14" stroke="#0D7323"/>
<path d="M8 20.5H14" stroke="#0D7323"/>
<path d="M8 16.5H21" stroke="#0D7323"/>
<path d="M21 12.5H33" stroke="#0D7323"/>
<path d="M21 20.5H33" stroke="#0D7323"/>
<path d="M21 16.5H33" stroke="#0D7323"/>
<path d="M8 12.5H21" stroke="#0D7323"/>
<path d="M8 28.5H21" stroke="#0D7323"/>
<path d="M8 24.5H21" stroke="#0D7323"/>
<path d="M8 20.5H21" stroke="#0D7323"/>
<path d="M21 12.5H33" stroke="#0D7323"/>
<path d="M21 16.5H33" stroke="#0D7323"/>
<path d="M24.0616 28.795C24.7313 27.0971 26.3427 26.0002 28.1667 26C29.9908 26 31.6023 27.097 32.2722 28.7946L32.3334 28.9497L32.2722 29.1047C31.6025 30.8025 29.9911 31.8995 28.1667 31.8995C26.3426 31.8995 24.7313 30.8027 24.0612 29.1049L24 28.9498L24.0616 28.795ZM28.1671 31.0547C29.5858 31.0547 30.8454 30.234 31.4213 28.9496C30.8453 27.6653 29.5857 26.8445 28.1671 26.8445C26.7486 26.8447 25.4889 27.6653 24.913 28.9497C25.4889 30.2342 26.7484 31.0547 28.1671 31.0547V31.0547Z" fill="#0D7323"/>
<path d="M28.1419 27.3802C29.0074 27.3802 29.7114 28.0844 29.7114 28.9497C29.7114 29.8148 29.0072 30.519 28.1419 30.519C27.2765 30.519 26.5725 29.815 26.5725 28.9497C26.5725 28.0844 27.2765 27.3802 28.1419 27.3802V27.3802Z" fill="#0D7323"/>
</svg>
