<svg width="40" height="40" viewBox="0 0 40 40" fill="none" xmlns="http://www.w3.org/2000/svg">
<rect width="40" height="40" rx="8" fill="#9BD8A1"/>
<path d="M8 7V32H14.3953M8 7H14.3953M8 7H20.7907M33 21.4231V7H26.6047H20.7907M14.3953 7V32M14.3953 7H20.7907M14.3953 32H20.7907V7" stroke="#0D7323" stroke-width="1.51515" stroke-linejoin="round"/>
<path d="M26.9394 7V12.303V21.3939" stroke="#0D7323" stroke-width="1.51515" stroke-linejoin="round"/>
<rect x="15.5757" y="7.91589" width="4.01515" height="23.1061" rx="1.06061" fill="#0D7323"/>
<path d="M26.9394 11.1666V21.3939V9.65149" stroke="#0D7323" stroke-width="1.51515" stroke-linejoin="round"/>
<path d="M33 14.5758V21.394V13.8182" stroke="#0D7323" stroke-width="1.51515" stroke-linejoin="round"/>
<path d="M24.7283 27.9767C25.398 26.2789 27.0093 25.1819 28.8333 25.1818C30.6574 25.1818 32.2689 26.2787 32.9388 27.9764L33 28.1314L32.9388 28.2865C32.2691 29.9843 30.6577 31.0813 28.8333 31.0813C27.0092 31.0813 25.3979 29.9844 24.7279 28.2866L24.6666 28.1316L24.7283 27.9767ZM28.8337 30.2365C30.2524 30.2365 31.512 29.4158 32.0879 28.1313C31.5119 26.847 30.2524 26.0263 28.8337 26.0263C27.4152 26.0264 26.1555 26.847 25.5796 28.1315C26.1555 29.4159 27.415 30.2365 28.8337 30.2365V30.2365Z" fill="#0D7323"/>
<path d="M28.8086 26.562C29.674 26.562 30.378 27.2662 30.378 28.1314C30.378 28.9966 29.6738 29.7007 28.8086 29.7007C27.9431 29.7007 27.2391 28.9967 27.2391 28.1314C27.2391 27.2662 27.9431 26.562 28.8086 26.562Z" fill="#0D7323"/>
<path d="M8 15.7H14" stroke="#0D7323"/>
<path d="M8 11.7H14" stroke="#0D7323"/>
<path d="M8 27.7H14" stroke="#0D7323"/>
<path d="M8 23.7H14" stroke="#0D7323"/>
<path d="M8 19.7H14" stroke="#0D7323"/>
<path d="M21 11.7H33" stroke="#0D7323"/>
<path d="M21 15.7H33" stroke="#0D7323"/>
<path d="M21 19.7H33" stroke="#0D7323"/>
</svg>
