<svg width="40" height="40" viewBox="0 0 40 40" fill="none" xmlns="http://www.w3.org/2000/svg">
<rect width="40" height="40" rx="8" fill="#A9EBE7"/>
<path d="M19.5 8C13.1614 8 8 13.1617 8 19.5C8 25.8383 13.1617 31 19.5 31C25.8383 31 31 25.8383 31 19.5C31 13.1617 25.8383 8 19.5 8ZM24.4744 19.9012C24.3942 20.0348 24.314 20.1152 24.1801 20.1955L17.2266 24.207C17.093 24.2872 16.9592 24.3141 16.8256 24.3141C16.3708 24.3141 16.0232 23.9664 16.0232 23.5117V15.4884C16.0232 15.0337 16.3709 14.686 16.8256 14.686C16.9592 14.686 17.093 14.7128 17.2266 14.7931L24.1801 18.8046C24.5546 19.0187 24.6883 19.5268 24.4744 19.9011V19.9012Z" fill="#1782B3"/>
</svg>
