<svg width="40" height="40" viewBox="0 0 40 40" fill="none" xmlns="http://www.w3.org/2000/svg">
<rect width="40" height="40" rx="8" fill="#A9EBE7"/>
<path fill-rule="evenodd" clip-rule="evenodd" d="M19.1824 32.6488L15.1718 28.5858C14.044 27.4631 15.736 25.7787 16.8643 26.9015L18.2371 28.273C18.5496 28.585 18.8032 28.4817 18.8032 28.0415V22.5813C18.8032 21.9287 19.3389 21.3935 19.9996 21.3935C20.6592 21.3935 21.1963 21.9251 21.1963 22.5813V28.0415C21.1963 28.4792 21.4497 28.5853 21.7625 28.273L23.1355 26.9015C24.2636 25.7787 25.9558 27.463 24.828 28.5858L20.8588 32.643C20.3947 33.1176 19.6459 33.1184 19.1824 32.6488L19.1824 32.6488ZM27.778 25.6348C27.2312 26.1775 26.345 26.1775 25.7981 25.6348C25.2515 25.0924 25.2515 24.2127 25.7981 23.67C29.0004 20.4922 29.0004 15.3398 25.7981 12.1622C22.5958 8.98434 17.4039 8.98434 14.2017 12.1622C10.9995 15.34 10.9995 20.4923 14.2017 23.67C14.7483 24.2127 14.7483 25.0923 14.2017 25.6348C13.6549 26.1775 12.7687 26.1775 12.2218 25.6348C7.92606 21.3718 7.92606 14.4601 12.2218 10.1972C16.5176 5.93426 23.4825 5.93426 27.7782 10.1972C32.0739 14.4602 32.0739 21.3719 27.7782 25.6348H27.778Z" fill="#1782B3"/>
</svg>
