<svg width="40" height="40" viewBox="0 0 40 40" fill="none" xmlns="http://www.w3.org/2000/svg">
<rect width="40" height="40" rx="8" fill="#9BD8A1"/>
<path d="M8 8V32H14.1395M8 8H14.1395M8 8H20.2791M32 21.8462V8H25.8605H20.2791M14.1395 8V32M14.1395 8H20.2791M14.1395 32H20.2791V8" stroke="#0D7323" stroke-width="1.45455" stroke-linejoin="round"/>
<path d="M26.1818 8V13.0909V21.8182" stroke="#0D7323" stroke-width="1.45455" stroke-linejoin="round"/>
<rect x="15.2727" y="8.87927" width="3.85455" height="22.1818" rx="1.01818" fill="#0D7323"/>
<path d="M26.1818 12V21.8181V10.5454" stroke="#0D7323" stroke-width="1.45455" stroke-linejoin="round"/>
<path d="M32 15.2727V21.8181V14.5454" stroke="#0D7323" stroke-width="1.45455" stroke-linejoin="round"/>
<path d="M26.3252 26.7314L26.3252 26.7314C26.5495 26.9556 26.913 26.9556 27.1372 26.7314C27.3614 26.5072 27.3614 26.1436 27.1372 25.9194L25.2769 24.0591C25.2769 24.0591 25.2769 24.0591 25.2769 24.0591C25.0526 23.8349 24.6891 23.8349 24.4649 24.0591L22.6046 25.9194L22.6759 25.9907L22.6046 25.9194C22.3803 26.1436 22.3803 26.5072 22.6046 26.7314L22.6046 26.7314C22.8288 26.9556 23.1923 26.9556 23.4166 26.7314L23.4166 26.7314L24.2967 25.8513V30.9761C24.2967 31.2932 24.5537 31.5503 24.8709 31.5503C25.188 31.5503 25.4451 31.2932 25.4451 30.9761V25.8513L26.3252 26.7314ZM30.0959 29.5901V24.4651C30.0959 24.148 29.8389 23.8909 29.5218 23.8909C29.2047 23.8909 28.9475 24.148 28.9475 24.4651V29.5901L28.0674 28.7099L28.0674 28.7099C27.8432 28.4858 27.4796 28.4858 27.2555 28.7099C27.0312 28.9342 27.0312 29.2977 27.2555 29.522L29.1157 31.3822C29.2234 31.4899 29.3695 31.5505 29.5218 31.5505C29.6741 31.5505 29.8201 31.4899 29.9277 31.3823L31.7881 29.522L31.7881 29.522C32.0122 29.2977 32.0122 28.9342 31.7881 28.71L31.788 28.7099C31.5638 28.4858 31.2003 28.4858 30.976 28.7099L30.976 28.7099L30.0959 29.5901Z" fill="#0D7323" stroke="#0D7323" stroke-width="0.218182"/>
<path d="M8 16.4H14" stroke="#0D7323"/>
<path d="M8 12.4H14" stroke="#0D7323"/>
<path d="M8 28.4H14" stroke="#0D7323"/>
<path d="M8 24.4H14" stroke="#0D7323"/>
<path d="M8 20.4H14" stroke="#0D7323"/>
<path d="M21 12.4H32" stroke="#0D7323"/>
<path d="M21 16.4H32" stroke="#0D7323"/>
<path d="M21 20.4H32" stroke="#0D7323"/>
</svg>
