<svg width="40" height="40" viewBox="0 0 40 40" fill="none" xmlns="http://www.w3.org/2000/svg">
<rect width="40" height="40" rx="8" fill="#A9EBE7"/>
<path d="M5.72302 21.6828C6.11233 21.6828 6.41512 21.6131 6.6314 21.4737C6.84767 21.3295 6.95581 21.0988 6.95581 20.7816C6.95581 20.599 6.91977 20.4476 6.84767 20.3274C6.78039 20.2025 6.68907 20.0991 6.57372 20.0174C6.45837 19.9309 6.3262 19.8588 6.17721 19.8012C6.02822 19.7387 5.87202 19.6738 5.7086 19.6065C5.50194 19.5248 5.3169 19.4407 5.15349 19.3542C4.99008 19.2677 4.8507 19.1716 4.73535 19.0658C4.62 18.9553 4.53109 18.8303 4.4686 18.6909C4.41093 18.5516 4.38209 18.3881 4.38209 18.2007C4.38209 17.7729 4.52388 17.4485 4.80744 17.2274C5.09101 17.0064 5.48512 16.8958 5.98977 16.8958C6.12434 16.8958 6.25651 16.9054 6.38628 16.9247C6.51605 16.9439 6.6362 16.9703 6.74674 17.004C6.86209 17.0328 6.96543 17.0664 7.05674 17.1049C7.15287 17.1433 7.23217 17.1842 7.29465 17.2274L7.12163 17.6384C6.98225 17.5422 6.81163 17.4653 6.60977 17.4077C6.41271 17.35 6.19884 17.3212 5.96814 17.3212C5.80953 17.3212 5.66295 17.338 5.52837 17.3716C5.3986 17.4005 5.28566 17.4509 5.18953 17.523C5.09341 17.5903 5.01651 17.6768 4.95884 17.7826C4.90597 17.8883 4.87953 18.0157 4.87953 18.1647C4.87953 18.3184 4.90837 18.4482 4.96605 18.554C5.02372 18.6597 5.10302 18.751 5.20395 18.8279C5.30969 18.9048 5.43225 18.9745 5.57163 19.037C5.71101 19.0995 5.8624 19.1643 6.02581 19.2316C6.22287 19.3133 6.40791 19.395 6.58093 19.4767C6.75876 19.5584 6.91256 19.6546 7.04233 19.7651C7.17209 19.8757 7.27543 20.0102 7.35233 20.1688C7.42922 20.3274 7.46767 20.5221 7.46767 20.7528C7.46767 21.2046 7.30907 21.5434 6.99186 21.7693C6.67946 21.9952 6.25411 22.1081 5.71581 22.1081C5.52357 22.1081 5.34814 22.0961 5.18953 22.0721C5.03093 22.0481 4.88915 22.0192 4.76419 21.9856C4.63922 21.9471 4.53349 21.9087 4.44698 21.8702C4.36047 21.8318 4.29318 21.7981 4.24512 21.7693L4.40372 21.344C4.45178 21.3728 4.51667 21.4064 4.59837 21.4449C4.68008 21.4833 4.7762 21.5218 4.88674 21.5602C4.99729 21.5939 5.12225 21.6227 5.26163 21.6467C5.40101 21.6708 5.55481 21.6828 5.72302 21.6828ZM11.1704 21.8702C11.031 21.9087 10.8436 21.9519 10.6081 22C10.3726 22.0481 10.0842 22.0721 9.74294 22.0721C9.46418 22.0721 9.23108 22.0312 9.04364 21.9495C8.8562 21.8678 8.7048 21.7525 8.58945 21.6035C8.4741 21.4545 8.39 21.2743 8.33713 21.0628C8.28907 20.8513 8.26503 20.6182 8.26503 20.3635V18.2728H8.73364V20.2121C8.73364 20.4764 8.75286 20.6999 8.79131 20.8826C8.82976 21.0652 8.89224 21.2142 8.97876 21.3295C9.06527 21.4401 9.17581 21.5218 9.31038 21.5747C9.44976 21.6227 9.61798 21.6467 9.81503 21.6467C10.0361 21.6467 10.2284 21.6347 10.3918 21.6107C10.5552 21.5867 10.6585 21.565 10.7018 21.5458V18.2728H11.1704V21.8702ZM14.6909 20.0751C14.6909 19.383 14.4362 19.037 13.9268 19.037C13.8162 19.037 13.7057 19.0514 13.5951 19.0802C13.4894 19.1091 13.4029 19.1451 13.3356 19.1884V21.1421C13.3885 21.1517 13.4558 21.1613 13.5375 21.1709C13.6192 21.1757 13.7081 21.1781 13.8042 21.1781C14.0974 21.1781 14.3185 21.0772 14.4675 20.8753C14.6164 20.6735 14.6909 20.4067 14.6909 20.0751ZM15.7868 20.104C15.7868 20.4067 15.7411 20.6807 15.6498 20.9258C15.5633 21.1709 15.4359 21.38 15.2677 21.553C15.0995 21.726 14.8928 21.8606 14.6477 21.9567C14.4026 22.0481 14.1238 22.0937 13.8114 22.0937C13.6816 22.0937 13.5447 22.0865 13.4005 22.0721C13.2611 22.0625 13.1217 22.0481 12.9823 22.0288C12.8478 22.0096 12.718 21.988 12.593 21.964C12.4681 21.9351 12.3575 21.9063 12.2614 21.8774V16.5786L13.3356 16.4056V18.2944C13.4558 18.2416 13.5807 18.2007 13.7105 18.1719C13.8402 18.143 13.9796 18.1286 14.1286 18.1286C14.3978 18.1286 14.6357 18.1767 14.8423 18.2728C15.049 18.3641 15.222 18.4963 15.3614 18.6693C15.5008 18.8423 15.6065 19.0514 15.6786 19.2965C15.7507 19.5368 15.7868 19.806 15.7868 20.104ZM17.6649 21.2286C17.8619 21.2286 18.0013 21.2094 18.083 21.1709C18.1647 21.1325 18.2056 21.058 18.2056 20.9474C18.2056 20.8609 18.1527 20.7864 18.047 20.724C17.9413 20.6567 17.7802 20.5822 17.564 20.5005C17.3957 20.438 17.2419 20.3731 17.1026 20.3058C16.968 20.2385 16.8526 20.1592 16.7565 20.0679C16.6604 19.9718 16.5859 19.8588 16.533 19.7291C16.4802 19.5993 16.4537 19.4431 16.4537 19.2605C16.4537 18.9048 16.5859 18.6236 16.8502 18.417C17.1146 18.2103 17.4775 18.107 17.9388 18.107C18.1695 18.107 18.3906 18.1286 18.6021 18.1719C18.8136 18.2103 18.9818 18.2536 19.1068 18.3016L18.9193 19.1379C18.7944 19.0947 18.6574 19.0562 18.5084 19.0226C18.3642 18.9889 18.2008 18.9721 18.0181 18.9721C17.6817 18.9721 17.5135 19.0658 17.5135 19.2533C17.5135 19.2965 17.5207 19.335 17.5351 19.3686C17.5495 19.4022 17.5784 19.4359 17.6216 19.4695C17.6649 19.4984 17.7226 19.532 17.7947 19.5705C17.8716 19.6041 17.9677 19.6426 18.083 19.6858C18.3185 19.7723 18.5132 19.8588 18.667 19.9453C18.8208 20.0271 18.9409 20.1184 19.0275 20.2193C19.1188 20.3154 19.1813 20.4236 19.2149 20.5437C19.2533 20.6639 19.2726 20.8033 19.2726 20.9619C19.2726 21.3367 19.1308 21.6203 18.8472 21.8126C18.5685 22.0048 18.1719 22.1009 17.6577 22.1009C17.3213 22.1009 17.0401 22.0721 16.8142 22.0144C16.5931 21.9567 16.4393 21.9087 16.3528 21.8702L16.533 20.9979C16.7157 21.07 16.9031 21.1277 17.0954 21.1709C17.2876 21.2094 17.4775 21.2286 17.6649 21.2286ZM20.0032 17.2635L21.0774 17.0905V18.2079H22.3679V19.1019H21.0774V20.4356C21.0774 20.6615 21.1159 20.8417 21.1928 20.9763C21.2745 21.1109 21.4355 21.1781 21.6758 21.1781C21.7911 21.1781 21.9089 21.1685 22.0291 21.1493C22.154 21.1253 22.267 21.094 22.3679 21.0556L22.5193 21.8919C22.3895 21.9447 22.2453 21.9904 22.0867 22.0288C21.9281 22.0673 21.7335 22.0865 21.5028 22.0865C21.2096 22.0865 20.9669 22.0481 20.7746 21.9712C20.5824 21.8895 20.4286 21.7789 20.3132 21.6395C20.1979 21.4953 20.1162 21.3223 20.0681 21.1205C20.0249 20.9186 20.0032 20.6951 20.0032 20.45V17.2635ZM25.4919 19.1595C25.3958 19.1355 25.2829 19.1115 25.1531 19.0874C25.0233 19.0586 24.884 19.0442 24.735 19.0442C24.6677 19.0442 24.586 19.0514 24.4898 19.0658C24.3985 19.0754 24.3288 19.0874 24.2808 19.1019V22H23.2066V18.4098C23.3988 18.3425 23.6247 18.28 23.8843 18.2223C24.1486 18.1598 24.4418 18.1286 24.7638 18.1286C24.8215 18.1286 24.8912 18.1334 24.9729 18.143C25.0546 18.1478 25.1363 18.1574 25.218 18.1719C25.2997 18.1815 25.3814 18.1959 25.4631 18.2151C25.5448 18.2295 25.6145 18.2488 25.6722 18.2728L25.4919 19.1595ZM26.7959 22H26.3273V18.2728H26.7959V22ZM26.9041 17.1481C26.9041 17.2587 26.8704 17.3476 26.8031 17.4149C26.7358 17.4774 26.6541 17.5086 26.558 17.5086C26.4619 17.5086 26.3802 17.4774 26.3129 17.4149C26.2456 17.3476 26.212 17.2587 26.212 17.1481C26.212 17.0376 26.2456 16.9511 26.3129 16.8886C26.3802 16.8213 26.4619 16.7877 26.558 16.7877C26.6541 16.7877 26.7358 16.8213 26.8031 16.8886C26.8704 16.9511 26.9041 17.0376 26.9041 17.1481ZM28.0021 18.4026C28.1415 18.3641 28.3289 18.3209 28.5644 18.2728C28.7999 18.2247 29.0883 18.2007 29.4295 18.2007C29.7131 18.2007 29.9486 18.2416 30.136 18.3233C30.3283 18.405 30.4797 18.5227 30.5902 18.6765C30.7056 18.8255 30.7873 19.0057 30.8353 19.2172C30.8834 19.4287 30.9074 19.6618 30.9074 19.9165V22H30.4388V20.0679C30.4388 19.8036 30.4196 19.5801 30.3811 19.3974C30.3475 19.2148 30.2874 19.0658 30.2009 18.9505C30.1192 18.8351 30.0087 18.7534 29.8693 18.7053C29.7347 18.6525 29.5641 18.626 29.3574 18.626C29.1363 18.626 28.9441 18.6381 28.7807 18.6621C28.6221 18.6861 28.5187 18.7078 28.4707 18.727V22H28.0021V18.4026ZM34.5001 21.5674C34.4712 21.5915 34.428 21.6203 34.3703 21.654C34.3126 21.6828 34.2405 21.714 34.154 21.7477C34.0723 21.7813 33.9762 21.8102 33.8657 21.8342C33.7599 21.8534 33.6398 21.863 33.5052 21.863C33.2889 21.863 33.0798 21.8294 32.878 21.7621C32.6761 21.6948 32.4983 21.5891 32.3445 21.4449C32.1955 21.3007 32.0753 21.1157 31.984 20.8898C31.8927 20.6591 31.8471 20.3803 31.8471 20.0535C31.8471 19.7891 31.8879 19.544 31.9696 19.3181C32.0513 19.0922 32.1667 18.8976 32.3157 18.7342C32.4695 18.566 32.6545 18.4362 32.8708 18.3449C33.0919 18.2488 33.3394 18.2007 33.6133 18.2007C33.9594 18.2007 34.2357 18.2247 34.4424 18.2728C34.6539 18.316 34.8269 18.3593 34.9615 18.4026V21.8053C34.9615 22.3629 34.8173 22.7594 34.5289 22.9949C34.2405 23.2352 33.8056 23.3553 33.224 23.3553C32.9837 23.3553 32.765 23.3361 32.568 23.2977C32.3757 23.264 32.2099 23.2232 32.0705 23.1751L32.1643 22.7498C32.2796 22.8026 32.4358 22.8483 32.6329 22.8867C32.8347 22.9252 33.0366 22.9444 33.2384 22.9444C33.6806 22.9444 34.0002 22.8579 34.1973 22.6849C34.3991 22.5167 34.5001 22.2259 34.5001 21.8126V21.5674ZM34.4929 18.727C34.4112 18.7029 34.3054 18.6813 34.1757 18.6621C34.0459 18.6381 33.8609 18.626 33.6205 18.626C33.4187 18.626 33.2384 18.6621 33.0798 18.7342C32.926 18.8015 32.7939 18.9 32.6833 19.0298C32.5728 19.1547 32.4887 19.3061 32.431 19.484C32.3733 19.657 32.3445 19.8492 32.3445 20.0607C32.3445 20.3058 32.3781 20.5173 32.4454 20.6951C32.5127 20.8681 32.5992 21.0099 32.705 21.1205C32.8155 21.231 32.9405 21.3127 33.0798 21.3656C33.2192 21.4136 33.361 21.4377 33.5052 21.4377C33.7167 21.4377 33.9089 21.4064 34.0819 21.344C34.2598 21.2815 34.3967 21.2094 34.4929 21.1277V18.727Z" fill="#1782B3"/>
</svg>
