<svg width="40" height="40" viewBox="0 0 40 40" fill="none" xmlns="http://www.w3.org/2000/svg">
<rect width="40" height="40" rx="8" fill="#9BD8A1"/>
<path d="M21.8509 13.7715C21.8839 13.3061 21.935 12.931 22.01 12.6098C22.3558 13.5432 23.1903 14.1839 24.1637 14.1839C25.4451 14.1839 26.4875 13.0488 26.4875 11.6539C26.4875 10.5882 25.5886 9.5304 24.3363 9.13508C23.9513 9.0422 23.588 9.00196 23.2219 9C22.5442 9.00196 21.8689 9.18575 21.2677 9.53281C20.6631 9.88737 20.1037 10.4543 19.6926 11.128C19.3465 11.6882 19.0759 12.3486 18.8645 13.1488C18.6288 14.074 18.5062 15.0455 18.4786 16.1876H14.6275L13 17.9845H18.5058C18.5477 18.8619 18.6206 19.7193 18.7168 20.7211C18.7472 21.0344 18.7786 21.346 18.8099 21.6556C18.8968 22.5203 18.9792 23.3371 19.04 24.1528C19.0889 24.8241 19.1144 25.3278 19.1228 25.7837C19.1248 26.2522 19.1186 26.801 19.06 27.3162C18.9968 27.8545 18.8998 28.2935 18.7623 28.6618C18.6146 29.0825 18.4065 29.4325 18.1252 29.7331C18.1233 29.7353 18.1212 29.7374 18.1194 29.7395C18.1466 29.5842 18.1605 29.426 18.1605 29.2655C18.1605 27.8704 17.1181 26.7355 15.8367 26.7355C14.5553 26.7355 13.5129 27.8706 13.5129 29.2655C13.5129 30.0626 13.8795 30.7556 14.573 31.2691C14.9697 31.5638 15.4793 31.7722 16.0474 31.8716C16.5478 31.9568 16.9441 32 17.2295 32C17.2811 32 17.3289 31.9985 17.3731 31.9958C18.0583 31.948 18.6928 31.7605 19.2578 31.4387C19.5382 31.2818 19.8206 31.0711 20.1276 30.788C20.4159 30.4951 20.6446 30.2164 20.8258 29.9373C21.1972 29.372 21.4943 28.712 21.7092 27.9748C21.8896 27.3494 22.0211 26.6806 22.0998 25.9882C22.1739 25.3866 22.2161 24.7567 22.229 24.0632C22.257 22.7792 22.1932 21.5426 22.1203 20.3976C22.0887 19.8989 22.054 19.4048 22.0195 18.9163C21.9974 18.6028 21.9762 18.2931 21.9553 17.9843H25.3725L27 16.1873L21.8548 16.1875C21.822 15.4725 21.7967 14.5885 21.8509 13.7715Z" fill="#0D7323"/>
</svg>
