<svg width="40" height="40" viewBox="0 0 40 40" fill="none" xmlns="http://www.w3.org/2000/svg">
<rect width="40" height="40" rx="8" fill="#9BD8A1"/>
<path d="M11.9968 26.2379V26.25H12.2468H16.628C16.9621 26.25 17.25 25.9875 17.25 25.643C17.25 25.2978 16.9615 25.036 16.628 25.036H12.2469C12.2468 25.036 12.2468 25.036 12.2468 25.036C11.8966 25.0359 11.585 24.901 11.3574 24.6834C11.1307 24.4652 10.9945 24.1709 10.9945 23.8442V18.1559C10.9945 18.1559 10.9945 18.1558 10.9945 18.1558C10.9946 17.8291 11.131 17.5347 11.3575 17.3165C11.585 17.0987 11.8965 16.964 12.2468 16.964H16.628C16.9621 16.964 17.25 16.7015 17.25 16.357C17.25 16.0118 16.9615 15.75 16.628 15.75H12.2468C10.8775 15.75 9.75021 16.8172 9.75 18.1557V18.1558V23.8438V23.8438C9.75019 25.0999 10.7429 26.1171 11.9968 26.2379Z" fill="#0D7323" stroke="#0D7323" stroke-width="0.5"/>
<path d="M30.0809 26.25H30.0809C31.3055 26.2498 32.2497 25.1447 32.25 23.8441V23.844V18.156V18.1559C32.2498 16.8551 31.3055 15.75 30.0809 15.75H23.3181C22.9777 15.75 22.75 16.05 22.75 16.3573C22.75 16.6646 22.9777 16.9646 23.3181 16.9646L30.0807 16.9646C30.0808 16.9646 30.0808 16.9646 30.0808 16.9646C30.357 16.9648 30.6103 17.0888 30.8017 17.3031C30.993 17.5185 31.1142 17.8172 31.1142 18.1563V23.8439C31.1142 24.1828 30.993 24.4816 30.8015 24.6971L30.7954 24.704C30.6047 24.9142 30.354 25.0354 30.0809 25.0354H23.3181C22.9777 25.0354 22.75 25.3354 22.75 25.6427C22.75 25.95 22.9777 26.25 23.3181 26.25H30.0809Z" fill="#0D7323" stroke="#0D7323" stroke-width="0.5"/>
<path d="M13.7501 20.0505V22.6002C13.7501 23.0081 14.1405 23.25 14.4998 23.25V23.25C14.8592 23.25 15.2499 23.0081 15.2499 22.5998V20.0503H16.4998C16.8592 20.0503 17.25 19.8084 17.25 19.4002C17.25 18.9919 16.8592 18.75 16.4998 18.75H16.4998L12.5002 18.7502C12.5002 18.7502 12.5002 18.7502 12.5002 18.7502C12.1408 18.7502 11.75 18.9921 11.75 19.4003C11.75 19.8086 12.1408 20.0505 12.5002 20.0505H13.7501Z" fill="#0D7323" stroke="#0D7323" stroke-width="0.5"/>
<path d="M22.25 10.3548L22.25 10.3543C22.2492 9.97145 21.8838 9.75 21.5554 9.75H18.4446C18.1164 9.75 17.75 9.97127 17.75 10.355C17.75 10.7387 18.1164 10.96 18.4446 10.96H19.3057V31.04H18.4446C18.1164 31.04 17.75 31.2613 17.75 31.645C17.75 32.0287 18.1164 32.25 18.4446 32.25H21.5554C21.8836 32.25 22.25 32.0287 22.25 31.645C22.25 31.2613 21.8836 31.04 21.5554 31.04H20.6943L20.6945 10.96L21.5554 10.9598C21.5554 10.9598 21.5554 10.9598 21.5554 10.9598C21.8836 10.9598 22.25 10.7385 22.25 10.3548Z" fill="#0D7323" stroke="#0D7323" stroke-width="0.5"/>
</svg>
