<svg width="40" height="40" viewBox="0 0 40 40" fill="none" xmlns="http://www.w3.org/2000/svg">
<rect width="40" height="40" rx="8" fill="#9BD8A1"/>
<path d="M11.9968 25.2379V25.25H12.2468H16.628C16.9621 25.25 17.25 24.9875 17.25 24.643C17.25 24.2978 16.9615 24.036 16.628 24.036H12.2469C12.2468 24.036 12.2468 24.036 12.2468 24.036C11.8966 24.0359 11.5851 23.901 11.3575 23.6835C11.1307 23.4653 10.9945 23.171 10.9945 22.8442V17.1559C10.9945 17.1559 10.9945 17.1558 10.9945 17.1558C10.9946 16.8291 11.131 16.5347 11.3575 16.3165C11.585 16.0987 11.8965 15.964 12.2468 15.964H16.628C16.9621 15.964 17.25 15.7015 17.25 15.357C17.25 15.0118 16.9615 14.75 16.628 14.75H12.2468C10.8775 14.75 9.75021 15.8172 9.75 17.1557V17.1558V22.8438V22.8438C9.75019 24.0999 10.7429 25.1171 11.9968 25.2379Z" fill="#0D7323" stroke="#0D7323" stroke-width="0.5"/>
<path d="M30.0809 25.25H30.0809C31.3055 25.2498 32.2497 24.1447 32.25 22.8441V22.844V17.156V17.1559C32.2498 15.8551 31.3055 14.75 30.0809 14.75H23.3181C22.9777 14.75 22.75 15.05 22.75 15.3573C22.75 15.6646 22.9777 15.9646 23.3181 15.9646H30.0807C30.3569 15.9647 30.6103 16.0888 30.8018 16.3031C30.9931 16.5185 31.1142 16.8172 31.1142 17.1563V22.8439C31.1142 23.1828 30.993 23.4816 30.8015 23.6971L30.7954 23.704C30.6047 23.9142 30.354 24.0354 30.0809 24.0354H23.3181C22.9777 24.0354 22.75 24.3354 22.75 24.6427C22.75 24.95 22.9777 25.25 23.3181 25.25H30.0809Z" fill="#0D7323" stroke="#0D7323" stroke-width="0.5"/>
<path d="M13.7501 19.0505V21.6002C13.7501 22.0081 14.1405 22.25 14.4998 22.25V22.25C14.8592 22.25 15.2499 22.0081 15.2499 21.5998V19.0503H16.4998C16.8592 19.0503 17.25 18.8084 17.25 18.4002C17.25 17.9919 16.8592 17.75 16.4998 17.75H16.4998L12.5002 17.7502C12.5002 17.7502 12.5002 17.7502 12.5002 17.7502C12.1408 17.7502 11.75 17.9921 11.75 18.4003C11.75 18.8086 12.1408 19.0505 12.5002 19.0505H13.7501Z" fill="#0D7323" stroke="#0D7323" stroke-width="0.5"/>
<path d="M22.25 9.35483L22.25 9.35428C22.2492 8.97145 21.8838 8.75 21.5554 8.75H18.4446C18.1164 8.75 17.75 8.97127 17.75 9.355C17.75 9.73872 18.1164 9.95999 18.4446 9.95999H19.3057V30.04H18.4446C18.1164 30.04 17.75 30.2613 17.75 30.645C17.75 31.0287 18.1164 31.25 18.4446 31.25H21.5554C21.8836 31.25 22.25 31.0287 22.25 30.645C22.25 30.2613 21.8836 30.04 21.5554 30.04H20.6943L20.6945 9.95995L21.5554 9.95982C21.5554 9.95982 21.5554 9.95982 21.5554 9.95982C21.8836 9.9598 22.25 9.73854 22.25 9.35483Z" fill="#0D7323" stroke="#0D7323" stroke-width="0.5"/>
<path d="M26.1765 19.1763L29 21.9999L25.5715 18.5713" stroke="#0D7323" stroke-width="1.52381" stroke-linejoin="round"/>
<path d="M27.8235 20.8235L25 18L28.4285 21.4286" stroke="#0D7323" stroke-width="1.52381" stroke-linejoin="round"/>
<path d="M26.1765 20.8235L29 18L25.5715 21.4286" stroke="#0D7323" stroke-width="1.52381" stroke-linejoin="round"/>
<path d="M27.8235 19.1763L25 21.9999L28.4285 18.5713" stroke="#0D7323" stroke-width="1.52381" stroke-linejoin="round"/>
</svg>
